<svg xmlns="http://www.w3.org/2000/svg" xmlns:xlink="http://www.w3.org/1999/xlink" viewBox="0 0 512 512" width="512" height="512" style="width: 100%; height: 100%; transform: translate3d(0px, 0px, 0px); content-visibility: visible;" preserveAspectRatio="xMidYMid meet"><defs><clipPath id="__lottie_element_1470"><rect width="512" height="512" x="0" y="0"/></clipPath><linearGradient id="__lottie_element_1476" spreadMethod="pad" gradientUnits="userSpaceOnUse" x1="0" y1="0" x2="100" y2="0"><stop offset="33%" stop-color="rgb(246,204,247)"/><stop offset="62%" stop-color="rgb(231,181,242)"/><stop offset="87%" stop-color="rgb(216,158,237)"/></linearGradient><linearGradient id="__lottie_element_1477" spreadMethod="pad" gradientUnits="userSpaceOnUse" x1="-7.141612529754639" y1="-19.495271682739258" x2="45.125640869140625" y2="-28.67664909362793"><stop offset="0%" stop-color="rgb(191,0,162)"/><stop offset="72%" stop-color="rgb(212,94,202)"/><stop offset="100%" stop-color="rgb(234,188,243)"/></linearGradient><linearGradient id="__lottie_element_1478" spreadMethod="pad" gradientUnits="userSpaceOnUse" x1="-30.191001892089844" y1="-4.795701503753662" x2="53.04422378540039" y2="-2.7267134189605713"><stop offset="23%" stop-color="rgb(191,0,162)" stop-opacity="1"/><stop offset="79%" stop-color="rgb(212,94,202)" stop-opacity="0.550000011920929"/><stop offset="100%" stop-color="rgb(234,188,243)" stop-opacity="0.10000000149011612"/></linearGradient><linearGradient id="__lottie_element_1479" spreadMethod="pad" gradientUnits="userSpaceOnUse" x1="245.4320068359375" y1="31.420000076293945" x2="87.16699981689453" y2="-69.76899719238281"><stop offset="0%" stop-color="rgb(255,255,255)" stop-opacity="0"/><stop offset="58%" stop-color="rgb(255,255,255)" stop-opacity="0.5"/><stop offset="100%" stop-color="rgb(255,255,255)" stop-opacity="1"/></linearGradient><linearGradient id="__lottie_element_1480" spreadMethod="pad" gradientUnits="userSpaceOnUse" x1="-93.92900085449219" y1="-20.475000381469727" x2="86.16100311279297" y2="-18.437999725341797"><stop offset="44%" stop-color="rgb(177,15,183)"/><stop offset="67%" stop-color="rgb(194,54,198)"/><stop offset="81%" stop-color="rgb(211,93,213)"/></linearGradient><radialGradient id="__lottie_element_1485" spreadMethod="pad" gradientUnits="userSpaceOnUse" cx="5.980000019073486" cy="-6.591000080108643" r="21.48990579225403" fx="5.980000019073486" fy="-6.591000080108643"><stop offset="7%" stop-color="rgb(244,239,207)"/><stop offset="27%" stop-color="rgb(245,236,148)"/><stop offset="47%" stop-color="rgb(245,234,89)"/><stop offset="73%" stop-color="rgb(230,190,67)"/><stop offset="100%" stop-color="rgb(215,146,45)"/></radialGradient><linearGradient id="__lottie_element_1486" spreadMethod="pad" gradientUnits="userSpaceOnUse" x1="0.6959999799728394" y1="14.119000434875488" x2="3.4189999103546143" y2="-22.121999740600586"><stop offset="0%" stop-color="rgb(230,255,183)" stop-opacity="0"/><stop offset="58%" stop-color="rgb(210,255,128)" stop-opacity="0.5"/><stop offset="100%" stop-color="rgb(189,255,73)" stop-opacity="1"/></linearGradient><linearGradient id="__lottie_element_1487" spreadMethod="pad" gradientUnits="userSpaceOnUse" x1="-3.8329999446868896" y1="22.98699951171875" x2="9.937999725341797" y2="-23.989999771118164"><stop offset="0%" stop-color="rgb(191,109,36)"/><stop offset="58%" stop-color="rgb(201,130,42)"/><stop offset="100%" stop-color="rgb(211,150,47)"/></linearGradient><linearGradient id="__lottie_element_1491" spreadMethod="pad" gradientUnits="userSpaceOnUse" x1="0" y1="0" x2="100" y2="0"><stop offset="6%" stop-color="rgb(206,122,13)"/><stop offset="52%" stop-color="rgb(212,121,18)"/><stop offset="100%" stop-color="rgb(219,120,23)"/></linearGradient><linearGradient id="__lottie_element_1492" spreadMethod="pad" gradientUnits="userSpaceOnUse" x1="16.479999542236328" y1="-82.41400146484375" x2="-6.473999977111816" y2="83.47799682617188"><stop offset="16%" stop-color="rgb(200,244,249)"/><stop offset="61%" stop-color="rgb(163,236,234)"/><stop offset="87%" stop-color="rgb(126,228,219)"/></linearGradient><linearGradient id="__lottie_element_1493" spreadMethod="pad" gradientUnits="userSpaceOnUse" x1="87.83000183105469" y1="-40.25600051879883" x2="118.04399871826172" y2="29.711999893188477"><stop offset="6%" stop-color="rgb(63,194,213)" stop-opacity="1"/><stop offset="74%" stop-color="rgb(78,199,217)" stop-opacity="0.550000011920929"/><stop offset="100%" stop-color="rgb(93,205,221)" stop-opacity="0.10000000149011612"/></linearGradient><linearGradient id="__lottie_element_1494" spreadMethod="pad" gradientUnits="userSpaceOnUse" x1="-22.06999969482422" y1="46.571998596191406" x2="-0.1289999932050705" y2="-82.75700378417969"><stop offset="33%" stop-color="rgb(246,204,247)"/><stop offset="62%" stop-color="rgb(231,181,242)"/><stop offset="87%" stop-color="rgb(216,158,237)"/></linearGradient><linearGradient id="__lottie_element_1495" spreadMethod="pad" gradientUnits="userSpaceOnUse" x1="-5.765999794006348" y1="1.0499999523162842" x2="-12.095000267028809" y2="-62.965999603271484"><stop offset="23%" stop-color="rgb(191,0,162)" stop-opacity="1"/><stop offset="79%" stop-color="rgb(212,94,202)" stop-opacity="0.550000011920929"/><stop offset="100%" stop-color="rgb(234,188,243)" stop-opacity="0.10000000149011612"/></linearGradient><linearGradient id="__lottie_element_1496" spreadMethod="pad" gradientUnits="userSpaceOnUse" x1="83.572998046875" y1="-63.50899887084961" x2="113.73500061035156" y2="-38.16899871826172"><stop offset="23%" stop-color="rgb(191,0,162)" stop-opacity="1"/><stop offset="79%" stop-color="rgb(212,94,202)" stop-opacity="0.550000011920929"/><stop offset="100%" stop-color="rgb(234,188,243)" stop-opacity="0.10000000149011612"/></linearGradient><linearGradient id="__lottie_element_1497" spreadMethod="pad" gradientUnits="userSpaceOnUse" x1="-76.0459976196289" y1="47.893001556396484" x2="33.28300094604492" y2="-76.58999633789062"><stop offset="0%" stop-color="rgb(255,255,255)" stop-opacity="0"/><stop offset="58%" stop-color="rgb(255,255,255)" stop-opacity="0.5"/><stop offset="100%" stop-color="rgb(255,255,255)" stop-opacity="1"/></linearGradient><linearGradient id="__lottie_element_1498" spreadMethod="pad" gradientUnits="userSpaceOnUse" x1="97.28600311279297" y1="132.88400268554688" x2="49.38199996948242" y2="-124.98200225830078"><stop offset="38%" stop-color="rgb(69,189,174)"/><stop offset="69%" stop-color="rgb(85,195,184)"/><stop offset="100%" stop-color="rgb(102,200,193)"/></linearGradient><linearGradient id="__lottie_element_1499" spreadMethod="pad" gradientUnits="userSpaceOnUse" x1="-16.058000564575195" y1="103.69100189208984" x2="48.882999420166016" y2="-100.46399688720703"><stop offset="16%" stop-color="rgb(186,59,171)"/><stop offset="69%" stop-color="rgb(201,96,194)"/><stop offset="100%" stop-color="rgb(216,132,217)"/></linearGradient><linearGradient id="__lottie_element_1503" spreadMethod="pad" gradientUnits="userSpaceOnUse" x1="54.12799835205078" y1="81.33200073242188" x2="151.4320068359375" y2="-80.84200286865234"><stop offset="33%" stop-color="rgb(246,204,247)"/><stop offset="62%" stop-color="rgb(231,181,242)"/><stop offset="87%" stop-color="rgb(216,158,237)"/></linearGradient><linearGradient id="__lottie_element_1504" spreadMethod="pad" gradientUnits="userSpaceOnUse" x1="-8.73900032043457" y1="-0.4749999940395355" x2="-43.36199951171875" y2="-44.33000183105469"><stop offset="23%" stop-color="rgb(191,0,162)" stop-opacity="1"/><stop offset="79%" stop-color="rgb(212,94,202)" stop-opacity="0.550000011920929"/><stop offset="100%" stop-color="rgb(234,188,243)" stop-opacity="0.10000000149011612"/></linearGradient><linearGradient id="__lottie_element_1505" spreadMethod="pad" gradientUnits="userSpaceOnUse" x1="97.5739974975586" y1="66.427001953125" x2="97.5739974975586" y2="-66.60700225830078"><stop offset="0%" stop-color="rgb(249,140,124)" stop-opacity="1"/><stop offset="42%" stop-color="rgb(233,112,87)" stop-opacity="0.5"/><stop offset="100%" stop-color="rgb(217,85,50)" stop-opacity="0"/></linearGradient><linearGradient id="__lottie_element_1506" spreadMethod="pad" gradientUnits="userSpaceOnUse" x1="97.03700256347656" y1="64.1449966430664" x2="97.03700256347656" y2="-64.68000030517578"><stop offset="0%" stop-color="rgb(255,255,255)" stop-opacity="0"/><stop offset="58%" stop-color="rgb(255,255,255)" stop-opacity="0.5"/><stop offset="100%" stop-color="rgb(255,255,255)" stop-opacity="1"/></linearGradient><linearGradient id="__lottie_element_1507" spreadMethod="pad" gradientUnits="userSpaceOnUse" x1="97.33000183105469" y1="100.85600280761719" x2="97.33000183105469" y2="-100.98300170898438"><stop offset="44%" stop-color="rgb(194,115,197)"/><stop offset="67%" stop-color="rgb(205,123,207)"/><stop offset="81%" stop-color="rgb(216,132,217)"/></linearGradient><linearGradient id="__lottie_element_1508" spreadMethod="pad" gradientUnits="userSpaceOnUse" x1="76" y1="6" x2="133" y2="17"><stop offset="30%" stop-color="rgb(131,41,20)"/><stop offset="62%" stop-color="rgb(161,65,48)"/><stop offset="81%" stop-color="rgb(191,89,76)"/></linearGradient><linearGradient id="__lottie_element_1512" spreadMethod="pad" gradientUnits="userSpaceOnUse" x1="142.44900512695312" y1="7.011000156402588" x2="20.88800048828125" y2="-17.77400016784668"><stop offset="16%" stop-color="rgb(200,244,249)"/><stop offset="61%" stop-color="rgb(163,236,234)"/><stop offset="87%" stop-color="rgb(126,228,219)"/></linearGradient><linearGradient id="__lottie_element_1513" spreadMethod="pad" gradientUnits="userSpaceOnUse" x1="95.51200103759766" y1="22.027000427246094" x2="89.11905670166016" y2="-77.49768829345703"><stop offset="6%" stop-color="rgb(63,194,213)" stop-opacity="1"/><stop offset="74%" stop-color="rgb(78,199,217)" stop-opacity="0.550000011920929"/><stop offset="100%" stop-color="rgb(93,205,221)" stop-opacity="0.10000000149011612"/></linearGradient><linearGradient id="__lottie_element_1514" spreadMethod="pad" gradientUnits="userSpaceOnUse" x1="41.9370002746582" y1="53.33599853515625" x2="-16.81999969482422" y2="-36.676998138427734"><stop offset="19%" stop-color="rgb(255,255,255)" stop-opacity="0.30000001192092896"/><stop offset="77%" stop-color="rgb(255,255,255)" stop-opacity="0.15000000596046448"/><stop offset="100%" stop-color="rgb(255,255,255)" stop-opacity="0"/></linearGradient><linearGradient id="__lottie_element_1515" spreadMethod="pad" gradientUnits="userSpaceOnUse" x1="-95.1510009765625" y1="37.301998138427734" x2="81.62799835205078" y2="-5.97599983215332"><stop offset="0%" stop-color="rgb(255,255,255)" stop-opacity="0"/><stop offset="23%" stop-color="rgb(255,255,255)" stop-opacity="0.5"/><stop offset="81%" stop-color="rgb(255,255,255)" stop-opacity="1"/></linearGradient><linearGradient id="__lottie_element_1516" spreadMethod="pad" gradientUnits="userSpaceOnUse" x1="96.84600067138672" y1="65.96099853515625" x2="96.84600067138672" y2="-67.91200256347656"><stop offset="13%" stop-color="rgb(98,131,126)"/><stop offset="47%" stop-color="rgb(101,143,141)"/><stop offset="67%" stop-color="rgb(104,154,155)"/></linearGradient><linearGradient id="__lottie_element_1517" spreadMethod="pad" gradientUnits="userSpaceOnUse" x1="166.44900512695312" y1="91.01100158691406" x2="21.889999389648438" y2="-53.54899978637695"><stop offset="38%" stop-color="rgb(22,138,173)"/><stop offset="69%" stop-color="rgb(58,167,180)"/><stop offset="100%" stop-color="rgb(93,195,188)"/></linearGradient><radialGradient id="__lottie_element_1522" spreadMethod="pad" gradientUnits="userSpaceOnUse" cx="6.349999904632568" cy="-9.027000427246094" r="31.504878753326505" fx="6.349999904632568" fy="-9.027000427246094"><stop offset="7%" stop-color="rgb(244,239,207)"/><stop offset="27%" stop-color="rgb(245,236,148)"/><stop offset="47%" stop-color="rgb(245,234,89)"/><stop offset="73%" stop-color="rgb(230,190,67)"/><stop offset="100%" stop-color="rgb(215,146,45)"/></radialGradient><linearGradient id="__lottie_element_1523" spreadMethod="pad" gradientUnits="userSpaceOnUse" x1="0.18299999833106995" y1="22.16900062561035" x2="4.85699987411499" y2="-27.764999389648438"><stop offset="0%" stop-color="rgb(230,255,183)" stop-opacity="0"/><stop offset="58%" stop-color="rgb(210,255,128)" stop-opacity="0.5"/><stop offset="100%" stop-color="rgb(189,255,73)" stop-opacity="1"/></linearGradient><linearGradient id="__lottie_element_1524" spreadMethod="pad" gradientUnits="userSpaceOnUse" x1="-0.9950000047683716" y1="30.753000259399414" x2="9.40999984741211" y2="-25.15399932861328"><stop offset="0%" stop-color="rgb(191,109,36)"/><stop offset="58%" stop-color="rgb(201,130,42)"/><stop offset="100%" stop-color="rgb(211,150,47)"/></linearGradient><radialGradient id="__lottie_element_1529" spreadMethod="pad" gradientUnits="userSpaceOnUse" cx="-6.284999847412109" cy="-10.730999946594238" r="30.427321011473254" fx="-6.284999847412109" fy="-10.730999946594238"><stop offset="7%" stop-color="rgb(244,239,207)"/><stop offset="27%" stop-color="rgb(245,236,148)"/><stop offset="47%" stop-color="rgb(245,234,89)"/><stop offset="73%" stop-color="rgb(230,190,67)"/><stop offset="100%" stop-color="rgb(215,146,45)"/></radialGradient><linearGradient id="__lottie_element_1530" spreadMethod="pad" gradientUnits="userSpaceOnUse" x1="10.215999603271484" y1="14.223999977111816" x2="-2.197999954223633" y2="-27"><stop offset="0%" stop-color="rgb(230,255,183)" stop-opacity="0"/><stop offset="58%" stop-color="rgb(210,255,128)" stop-opacity="0.5"/><stop offset="100%" stop-color="rgb(189,255,73)" stop-opacity="1"/></linearGradient><linearGradient id="__lottie_element_1531" spreadMethod="pad" gradientUnits="userSpaceOnUse" x1="13.927000045776367" y1="28.474000930786133" x2="-9.489999771118164" y2="-22.023000717163086"><stop offset="0%" stop-color="rgb(191,109,36)"/><stop offset="58%" stop-color="rgb(201,130,42)"/><stop offset="100%" stop-color="rgb(211,150,47)"/></linearGradient><linearGradient id="__lottie_element_1535" spreadMethod="pad" gradientUnits="userSpaceOnUse" x1="-23.856000900268555" y1="-43.7140007019043" x2="1.9490000009536743" y2="72.97899627685547"><stop offset="33%" stop-color="rgb(246,204,247)"/><stop offset="62%" stop-color="rgb(231,181,242)"/><stop offset="87%" stop-color="rgb(216,158,237)"/></linearGradient><linearGradient id="__lottie_element_1536" spreadMethod="pad" gradientUnits="userSpaceOnUse" x1="2.367000102996826" y1="69.56600189208984" x2="-12.222000122070312" y2="-64.5459976196289"><stop offset="0%" stop-color="rgb(255,255,255)" stop-opacity="0"/><stop offset="58%" stop-color="rgb(255,255,255)" stop-opacity="0.5"/><stop offset="100%" stop-color="rgb(255,255,255)" stop-opacity="1"/></linearGradient><linearGradient id="__lottie_element_1537" spreadMethod="pad" gradientUnits="userSpaceOnUse" x1="96.99600219726562" y1="61.07899856567383" x2="96.99600219726562" y2="-62.084999084472656"><stop offset="0%" stop-color="rgb(255,255,255)" stop-opacity="0"/><stop offset="58%" stop-color="rgb(255,255,255)" stop-opacity="0.5"/><stop offset="100%" stop-color="rgb(255,255,255)" stop-opacity="1"/></linearGradient><linearGradient id="__lottie_element_1538" spreadMethod="pad" gradientUnits="userSpaceOnUse" x1="-29.531999588012695" y1="78.26200103759766" x2="-64.64299774169922" y2="-92.3010025024414"><stop offset="44%" stop-color="rgb(186,59,171)"/><stop offset="67%" stop-color="rgb(201,96,194)"/><stop offset="81%" stop-color="rgb(216,132,217)"/></linearGradient><linearGradient id="__lottie_element_1539" spreadMethod="pad" gradientUnits="userSpaceOnUse" x1="99.55599975585938" y1="69.42400360107422" x2="93.79199981689453" y2="-41.7400016784668"><stop offset="16%" stop-color="rgb(200,244,249)"/><stop offset="61%" stop-color="rgb(163,236,234)"/><stop offset="87%" stop-color="rgb(126,228,219)"/></linearGradient><linearGradient id="__lottie_element_1540" spreadMethod="pad" gradientUnits="userSpaceOnUse" x1="46.49100112915039" y1="-11.432000160217285" x2="81.55899810791016" y2="-55.266998291015625"><stop offset="6%" stop-color="rgb(63,194,213)" stop-opacity="1"/><stop offset="74%" stop-color="rgb(78,199,217)" stop-opacity="0.550000011920929"/><stop offset="100%" stop-color="rgb(93,205,221)" stop-opacity="0.10000000149011612"/></linearGradient><linearGradient id="__lottie_element_1541" spreadMethod="pad" gradientUnits="userSpaceOnUse" x1="96.84600067138672" y1="65.96099853515625" x2="96.84600067138672" y2="-67.91200256347656"><stop offset="13%" stop-color="rgb(98,131,126)"/><stop offset="47%" stop-color="rgb(101,143,141)"/><stop offset="67%" stop-color="rgb(104,154,155)"/></linearGradient><linearGradient id="__lottie_element_1542" spreadMethod="pad" gradientUnits="userSpaceOnUse" x1="60.35900115966797" y1="92.1780014038086" x2="-36.11800003051758" y2="-98.4209976196289"><stop offset="38%" stop-color="rgb(69,189,174)"/><stop offset="69%" stop-color="rgb(81,192,181)"/><stop offset="100%" stop-color="rgb(93,195,188)"/></linearGradient><radialGradient id="__lottie_element_1546" spreadMethod="pad" gradientUnits="userSpaceOnUse" cx="2.7780001163482666" cy="5.355000019073486" r="85.66096691524892" fx="2.7780001163482666" fy="5.355000019073486"><stop offset="17%" stop-color="rgb(246,249,139)"/><stop offset="37%" stop-color="rgb(247,238,100)"/><stop offset="56%" stop-color="rgb(247,227,62)"/><stop offset="72%" stop-color="rgb(236,193,45)"/><stop offset="88%" stop-color="rgb(226,158,27)"/></radialGradient><linearGradient id="__lottie_element_1547" spreadMethod="pad" gradientUnits="userSpaceOnUse" x1="-0.4189999997615814" y1="15.369000434875488" x2="-1.687999963760376" y2="-15.079999923706055"><stop offset="0%" stop-color="rgb(255,255,255)" stop-opacity="1"/><stop offset="50%" stop-color="rgb(255,255,255)" stop-opacity="0.5"/><stop offset="100%" stop-color="rgb(255,255,255)" stop-opacity="0"/></linearGradient><linearGradient id="__lottie_element_1548" spreadMethod="pad" gradientUnits="userSpaceOnUse" x1="-0.1679999977350235" y1="24.354999542236328" x2="-0.8019999861717224" y2="-4.190999984741211"><stop offset="0%" stop-color="rgb(255,255,255)" stop-opacity="1"/><stop offset="50%" stop-color="rgb(255,255,255)" stop-opacity="0.5"/><stop offset="100%" stop-color="rgb(255,255,255)" stop-opacity="0"/></linearGradient><linearGradient id="__lottie_element_1549" spreadMethod="pad" gradientUnits="userSpaceOnUse" x1="-10.38700008392334" y1="-21.60300064086914" x2="7.697999954223633" y2="23.283000946044922"><stop offset="0%" stop-color="rgb(255,251,183)" stop-opacity="0"/><stop offset="58%" stop-color="rgb(255,250,128)" stop-opacity="0.5"/><stop offset="100%" stop-color="rgb(255,249,73)" stop-opacity="1"/></linearGradient><linearGradient id="__lottie_element_1550" spreadMethod="pad" gradientUnits="userSpaceOnUse" x1="12.168999671936035" y1="-15.145999908447266" x2="-5.238999843597412" y2="18.198999404907227"><stop offset="0%" stop-color="rgb(255,253,183)" stop-opacity="0"/><stop offset="58%" stop-color="rgb(255,241,128)" stop-opacity="0.5"/><stop offset="100%" stop-color="rgb(255,230,73)" stop-opacity="1"/></linearGradient><radialGradient id="__lottie_element_1551" spreadMethod="pad" gradientUnits="userSpaceOnUse" cx="6.626999855041504" cy="11.244000434875488" r="96.80725912111302" fx="6.626999855041504" fy="11.244000434875488"><stop offset="41%" stop-color="rgb(218,151,24)"/><stop offset="62%" stop-color="rgb(205,131,24)"/><stop offset="77%" stop-color="rgb(191,111,25)"/></radialGradient><radialGradient id="__lottie_element_1556" spreadMethod="pad" gradientUnits="userSpaceOnUse" cx="-7.618000030517578" cy="-4.876999855041504" r="21.99876179027024" fx="-7.618000030517578" fy="-4.876999855041504"><stop offset="7%" stop-color="rgb(244,239,207)"/><stop offset="27%" stop-color="rgb(245,236,148)"/><stop offset="47%" stop-color="rgb(245,234,89)"/><stop offset="73%" stop-color="rgb(230,190,67)"/><stop offset="100%" stop-color="rgb(215,146,45)"/></radialGradient><linearGradient id="__lottie_element_1557" spreadMethod="pad" gradientUnits="userSpaceOnUse" x1="-3.9660000801086426" y1="14.503999710083008" x2="-2.740999937057495" y2="-19.635000228881836"><stop offset="0%" stop-color="rgb(230,255,183)" stop-opacity="0"/><stop offset="58%" stop-color="rgb(210,255,128)" stop-opacity="0.5"/><stop offset="100%" stop-color="rgb(189,255,73)" stop-opacity="1"/></linearGradient><linearGradient id="__lottie_element_1558" spreadMethod="pad" gradientUnits="userSpaceOnUse" x1="18.34000015258789" y1="20.31999969482422" x2="-10.25100040435791" y2="-17.976999282836914"><stop offset="0%" stop-color="rgb(191,109,36)"/><stop offset="58%" stop-color="rgb(201,130,42)"/><stop offset="100%" stop-color="rgb(211,150,47)"/></linearGradient><radialGradient id="__lottie_element_1563" spreadMethod="pad" gradientUnits="userSpaceOnUse" cx="-6.428999900817871" cy="-10.824999809265137" r="30.70665260882944" fx="-6.428999900817871" fy="-10.824999809265137"><stop offset="7%" stop-color="rgb(244,239,207)"/><stop offset="27%" stop-color="rgb(245,236,148)"/><stop offset="47%" stop-color="rgb(245,234,89)"/><stop offset="73%" stop-color="rgb(230,190,67)"/><stop offset="100%" stop-color="rgb(215,146,45)"/></radialGradient><linearGradient id="__lottie_element_1564" spreadMethod="pad" gradientUnits="userSpaceOnUse" x1="-1.100000023841858" y1="21.635000228881836" x2="5.125999927520752" y2="-26.718000411987305"><stop offset="0%" stop-color="rgb(230,255,183)" stop-opacity="0"/><stop offset="58%" stop-color="rgb(210,255,128)" stop-opacity="0.5"/><stop offset="100%" stop-color="rgb(189,255,73)" stop-opacity="1"/></linearGradient><linearGradient id="__lottie_element_1565" spreadMethod="pad" gradientUnits="userSpaceOnUse" x1="-4.2210001945495605" y1="27.024999618530273" x2="-15.083000183105469" y2="-19.125"><stop offset="0%" stop-color="rgb(191,109,36)"/><stop offset="58%" stop-color="rgb(201,130,42)"/><stop offset="100%" stop-color="rgb(211,150,47)"/></linearGradient></defs><g clip-path="url(#__lottie_element_1470)"><g style="display: block;" transform="matrix(0.935825765132904,-0.15242941677570343,0.1434672474861145,0.8808033466339111,-44.076656341552734,77.3064956665039)" opacity="1"><g opacity="1" transform="matrix(1,0,0,1,0,0)"><path fill="url(#__lottie_element_1476)" fill-opacity="1" d="M0 0"/></g><g opacity="1" transform="matrix(1,0,0,1,344.0769958496094,311.093994140625)"><path fill="url(#__lottie_element_1477)" fill-opacity="1" d=" M-47.20100021362305,-12.508999824523926 C7.570000171661377,-70.73200225830078 49.21226119995117,-59.125999450683594 30.95326042175293,40.92399978637695 C30.189260482788086,45.111000061035156 24.057260513305664,44.11800003051758 22.86326026916504,40.435001373291016 C19.28226089477539,29.386999130249023 18.02126121520996,-5.859241485595703 10.915385246276855,-1.2706431150436401 C2.4939630031585693,4.166473388671875 -17.927000045776367,47.67100143432617 -17.927000045776367,47.67100143432617 C-17.927000045776367,47.67100143432617 -47.20100021362305,-12.508999824523926 -47.20100021362305,-12.508999824523926z"/></g><g opacity="0.3" transform="matrix(1,0,0,1,344.0769958496094,311.093994140625)"><path fill="url(#__lottie_element_1478)" fill-opacity="1" d=" M-47.20100021362305,-12.508999824523926 C7.570000171661377,-70.73200225830078 49.21226119995117,-59.125999450683594 30.95326042175293,40.92399978637695 C30.189260482788086,45.111000061035156 24.057260513305664,44.11800003051758 22.86326026916504,40.435001373291016 C19.28226089477539,29.386999130249023 18.02126121520996,-5.859241485595703 10.915385246276855,-1.2706431150436401 C2.4939630031585693,4.166473388671875 -17.927000045776367,47.67100143432617 -17.927000045776367,47.67100143432617 C-17.927000045776367,47.67100143432617 -47.20100021362305,-12.508999824523926 -47.20100021362305,-12.508999824523926z"/></g><g opacity="0" transform="matrix(1,0,0,1,116.6050033569336,319.0429992675781)"><path fill="url(#__lottie_element_1479)" fill-opacity="1" d=" M190.51499938964844,1.875 C199.33399963378906,13.890999794006348 205.552001953125,30.361000061035156 209.4759979248047,38.57600021362305 C217.7270050048828,12.050999641418457 236.3167724609375,-9.713086128234863 240.7407684326172,-10.477086067199707 C245.16476440429688,-11.24108600616455 250.55999755859375,32.23197555541992 250.55999755859375,32.23197555541992 C250.55999755859375,32.23197555541992 253.38999938964844,-23.75200080871582 237.30499267578125,-24.95400047302246 C221.22000122070312,-26.1560001373291 197.6269989013672,-9.404000282287598 190.51499938964844,1.875z"/></g><g opacity="0" transform="matrix(1,0,0,1,0,0)"><path stroke-linecap="butt" stroke-linejoin="miter" fill-opacity="0" stroke-miterlimit="4" stroke="rgb(255,255,255)" stroke-opacity="0.25" stroke-width="8" d=" M376.7959899902344,308.7879943847656 C372.7619934082031,265.96099853515625 355.60699462890625,248.80599975585938 305.4729919433594,288.7720031738281"/></g><g opacity="1" transform="matrix(1,0,0,1,344.0769958496094,311.093994140625)"><path stroke="url(#__lottie_element_1480)" stroke-linecap="round" stroke-linejoin="round" fill-opacity="0" stroke-opacity="1" stroke-width="8" d=" M-47.20100021362305,-12.508999824523926 C7.570000171661377,-70.73200225830078 49.21226119995117,-59.125999450683594 30.95326042175293,40.92399978637695 C30.189260482788086,45.111000061035156 24.057260513305664,44.11800003051758 22.86326026916504,40.435001373291016 C19.28226089477539,29.386999130249023 18.02126121520996,-5.859241485595703 10.915385246276855,-1.2706431150436401 C2.4939630031585693,4.166473388671875 -17.927000045776367,47.67100143432617 -17.927000045776367,47.67100143432617 C-17.927000045776367,47.67100143432617 -47.20100021362305,-12.508999824523926 -47.20100021362305,-12.508999824523926z"/></g><g opacity="1" transform="matrix(1,0,0,1,356.9110107421875,335.35699462890625)"><path stroke-linecap="round" stroke-linejoin="round" fill-opacity="0" stroke="rgb(190,66,180)" stroke-opacity="1" stroke-width="8" d=" M18.119260787963867,16.66200065612793 C17.355260848999023,20.849000930786133 11.223260879516602,19.854999542236328 10.029260635375977,16.172000885009766 C6.44826078414917,5.124000072479248 5.187260627746582,-30.121999740600586 -1.9186149835586548,-25.533401489257812 C-10.34003734588623,-20.096284866333008 -30.76099967956543,23.408000946044922 -30.76099967956543,23.408000946044922"/></g></g><g style="display: block;" transform="matrix(0.7875584363937378,-0.5103299021720886,0.5254563689231873,0.7339023947715759,-133.84671020507812,266.44378662109375)" opacity="1"><g opacity="1" transform="matrix(1,0,0,1,385.1369934082031,362.6610107421875)"><path fill="url(#__lottie_element_1485)" fill-opacity="1" d=" M-18.937000274658203,-6.2230000495910645 C-22.374000549316406,4.235000133514404 -16.68199920654297,15.5 -6.2230000495910645,18.937000274658203 C4.236000061035156,22.374000549316406 15.5,16.680999755859375 18.937000274658203,6.2230000495910645 C22.374000549316406,-4.236000061035156 16.68199920654297,-15.5 6.2230000495910645,-18.937000274658203 C-4.235000133514404,-22.374000549316406 -15.5,-16.68199920654297 -18.937000274658203,-6.2230000495910645z"/></g><g opacity="0.5" transform="matrix(1,0,0,1,384.2550048828125,365.3450012207031)"><path stroke="url(#__lottie_element_1486)" stroke-linecap="round" stroke-linejoin="round" fill-opacity="0" stroke-opacity="1" stroke-width="8" d=" M-16.909000396728516,-5.557000160217285 C-19.858999252319336,3.4189999103546143 -14.680000305175781,13.184000015258789 -5.341000080108643,16.253000259399414 C3.997999906539917,19.32200050354004 13.958999633789062,14.534000396728516 16.909000396728516,5.557000160217285 C19.858999252319336,-3.4189999103546143 14.680000305175781,-13.184000015258789 5.341000080108643,-16.253000259399414 C-3.997999906539917,-19.32200050354004 -13.958999633789062,-14.534000396728516 -16.909000396728516,-5.557000160217285z"/></g><g opacity="1" transform="matrix(1,0,0,1,385.1369934082031,362.6610107421875)"><path stroke="url(#__lottie_element_1487)" stroke-linecap="round" stroke-linejoin="round" fill-opacity="0" stroke-opacity="1" stroke-width="8" d=" M-18.937000274658203,-6.2230000495910645 C-22.374000549316406,4.235000133514404 -16.68199920654297,15.5 -6.2230000495910645,18.937000274658203 C4.236000061035156,22.374000549316406 15.5,16.680999755859375 18.937000274658203,6.2230000495910645 C22.374000549316406,-4.236000061035156 16.68199920654297,-15.5 6.2230000495910645,-18.937000274658203 C-4.235000133514404,-22.374000549316406 -15.5,-16.68199920654297 -18.937000274658203,-6.2230000495910645z"/></g><g opacity="1" transform="matrix(1,0,0,1,391.09100341796875,371.8030090332031)"><path stroke-linecap="round" stroke-linejoin="round" fill-opacity="0" stroke="rgb(110,66,8)" stroke-opacity="1" stroke-width="8" d=" M9.520469665527344,1.7427812814712524 C9.520469665527344,1.7427812814712524 9.574663162231445,-6.925764560699463 7.923264503479004,-9.13729190826416"/></g><g opacity="1" transform="matrix(1,0,0,1,386.2409973144531,362.82598876953125)"><path stroke-linecap="round" stroke-linejoin="round" fill-opacity="0" stroke="rgb(110,66,8)" stroke-opacity="1" stroke-width="12" d=" M12.349469184875488,-0.25816449522972107 C12.349469184875488,-0.25816449522972107 12.928699493408203,-0.5792075395584106 12.928699493408203,-0.5792075395584106"/></g></g><g style="display: block;" transform="matrix(0.935825765132904,-0.15242941677570343,0.1434672474861145,0.8808033466339111,-19.515548706054688,73.30592346191406)" opacity="1"><g opacity="1" transform="matrix(1,0,0,1,0,0)"><path fill="url(#__lottie_element_1491)" fill-opacity="1" d="M0 0"/></g><g opacity="1" transform="matrix(1,0,0,1,261.8320007324219,200.18600463867188)"><path fill="url(#__lottie_element_1492)" fill-opacity="1" d=" M-79.8680648803711,76.61263275146484 C-86.01805877685547,-15.82636547088623 -54.152591705322266,-72.54369354248047 -14.444916725158691,-105.87289428710938 C30.478309631347656,-143.91531372070312 88.59979248046875,-119.70683288574219 106.63558959960938,-100.4375991821289 C125.56332397460938,-78.10443878173828 127.79042053222656,-31.20969581604004 119.72789764404297,-28.64731788635254 C109.43146514892578,-25.573890686035156 96.75213623046875,-81.49517059326172 66.24694061279297,-80.89427947998047 C36.326499938964844,-80.28646087646484 11.463860511779785,-29.437767028808594 34.31700134277344,62.926998138427734 C58.37849807739258,159.9540252685547 -75.70606231689453,139.17562866210938 -79.8680648803711,76.61263275146484z"/></g><g opacity="0.4" transform="matrix(1,0,0,1,284.2869873046875,198.3260040283203)"><path fill="url(#__lottie_element_1493)" fill-opacity="1" d=" M43.91908645629883,-79.67362213134766 C11.9366455078125,-84.41203308105469 -4.727546215057373,-58.45045471191406 -10.491792678833008,6.613290309906006 C-19.033985137939453,86.03253936767578 1.5470000505447388,89.91100311279297 1.5470000505447388,89.91100311279297 C1.5470000505447388,89.91100311279297 9.059000015258789,52.393001556396484 9.059000015258789,52.393001556396484 C9.059000015258789,52.393001556396484 -2.324896812438965,-3.7098538875579834 6.903186798095703,-38.932640075683594 C16.45186424255371,-74.99785614013672 43.91908645629883,-79.67362213134766 43.91908645629883,-79.67362213134766z"/></g><g opacity="1" transform="matrix(1,0,0,1,258.57000732421875,179.4980010986328)"><path fill="url(#__lottie_element_1494)" fill-opacity="1" d=" M123.93143463134766,-17.497859954833984 C124.35750579833984,-12.917941093444824 118.07019805908203,-10.089447021484375 118.07019805908203,-10.089447021484375 C110.32801818847656,-19.31694984436035 99.82117462158203,-48.59428405761719 81.5820541381836,-57.45928192138672 C81.5820541381836,-57.45928192138672 81.58158874511719,-57.46843338012695 81.55709838867188,-57.48128128051758 C80.37791442871094,-58.18928146362305 53.8564567565918,-72.34342956542969 36.97806930541992,-49.344688415527344 C10.44520092010498,-12.765429496765137 22.86933135986328,96.52684020996094 22.86933135986328,96.52684020996094 C22.86933135986328,96.52684020996094 -68.16236877441406,79.64344024658203 -68.16236877441406,79.64344024658203 C-66.33921813964844,-7.9766106605529785 -40.92744827270508,-55.80411148071289 -12.335448265075684,-81.22110748291016 C2.7185518741607666,-94.60411071777344 23.058401107788086,-104.80384826660156 35.385398864746094,-105.78085327148438 C35.385398864746094,-105.78085327148438 35.446861267089844,-105.78085327148438 35.446861267089844,-105.78085327148438 C71.62086486816406,-108.06185150146484 119.57820129394531,-64.30555725097656 123.93143463134766,-17.497859954833984z"/></g><g opacity="0.4" transform="matrix(1,0,0,1,241.22900390625,197.02000427246094)"><path fill="url(#__lottie_element_1495)" fill-opacity="1" d=" M84.01990509033203,-80.36672973632812 C73.68400573730469,-80.82772827148438 60.91033935546875,-76.14253997802734 53.42390441894531,-66.73854064941406 C25.729400634765625,-31.310741424560547 40.210330963134766,79.00483703613281 40.210330963134766,79.00483703613281 C40.210330963134766,79.00483703613281 -10.01171588897705,73.9178695678711 -10.01171588897705,73.9178695678711 C-10.01171588897705,73.9178695678711 -48.03701400756836,47.680110931396484 -48.03701400756836,47.680110931396484 C-48.287818908691406,23.36811065673828 -43.28187561035156,-14.96987533569336 -37.21587371826172,-31.486875534057617 C-36.44087600708008,7.768124580383301 17.012176513671875,3.834136962890625 32.68141555786133,-35.40147399902344 C46.084415435791016,-68.95347595214844 65.21844482421875,-84.61907958984375 84.01990509033203,-80.36672973632812z"/></g><g opacity="0.4" transform="matrix(1,0,0,1,241.22900390625,197.02000427246094)"><path fill="url(#__lottie_element_1496)" fill-opacity="0" d=" M116.55500030517578,-68.47799682617188 C101.1969985961914,-70.63099670410156 58.43199920654297,-54.31700134277344 58.4739990234375,-29.972000122070312 C58.70800018310547,-50.448001861572266 92.29199981689453,-69.9219970703125 116.75800323486328,-68.72699737548828 C140.2259979248047,-67.58100128173828 151.83299255371094,-59.29100036621094 160.57200622558594,-51.52299880981445 C155.89599609375,-60.42900085449219 130.83099365234375,-66.47599792480469 116.55500030517578,-68.47799682617188z"/></g><g opacity="0.3" transform="matrix(1,0,0,1,263.76300048828125,150.11700439453125)"><path stroke="url(#__lottie_element_1497)" stroke-linecap="round" stroke-linejoin="round" fill-opacity="0" stroke-opacity="1" stroke-width="8" d=" M-66.85523986816406,72.79963684082031 C-66.85523986816406,72.79963684082031 -64.02049255371094,11.15200138092041 -23.571916580200195,-35.56268310546875 C16.609764099121094,-81.98755645751953 75.95890808105469,-77.36097717285156 109.11724853515625,-42.80719757080078"/></g><g opacity="1" transform="matrix(1,0,0,1,261.8320007324219,200.18600463867188)"><path stroke="url(#__lottie_element_1498)" stroke-linecap="round" stroke-linejoin="round" fill-opacity="0" stroke-opacity="1" stroke-width="8" d=" M29.062999725341797,-38.34000015258789 C24.014999389648438,-14.744999885559082 24.83099937438965,18.87700080871582 34.31700134277344,62.926998138427734 C55.29653549194336,160.64102172851562 -75.47567749023438,138.92166137695312 -79.61223602294922,76.35680389404297 C-79.61223602294922,76.35680389404297 -79.61223602294922,76.35680389404297 -79.61223602294922,76.35680389404297 C-86.29239654541016,-24.733150482177734 -47.69444274902344,-77.7305679321289 -14.444916725158691,-105.87289428710938 C30.87986183166504,-144.20816040039062 86.55409240722656,-124.94783020019531 106.89095306396484,-100.4375991821289 C123.1905517578125,-78.00543975830078 127.53182220458984,-31.317949295043945 119.98326110839844,-28.775001525878906 C109.31674194335938,-25.36016082763672 97.17357635498047,-82.1756820678711 66.21501922607422,-80.60653686523438 C48.81999969482422,-79.73999786376953 34.95199966430664,-65.86199951171875 29.062999725341797,-38.34000015258789"/></g><g opacity="1" transform="matrix(1,0,0,1,258.55499267578125,179.50399780273438)"><path stroke="url(#__lottie_element_1499)" stroke-linecap="round" stroke-linejoin="round" fill-opacity="0" stroke-opacity="1" stroke-width="8" d=" M123.93143463134766,-17.497859954833984 C124.35750579833984,-12.917941093444824 118.07019805908203,-10.089447021484375 118.07019805908203,-10.089447021484375 C110.32801818847656,-19.31694984436035 99.82117462158203,-48.59381866455078 81.5820541381836,-57.45928192138672 C81.5820541381836,-57.45928192138672 81.58158874511719,-57.46843338012695 81.55709838867188,-57.48128128051758 C80.37791442871094,-58.18928146362305 56.28520202636719,-71.70408630371094 36.97806930541992,-49.344688415527344 C8.355093002319336,-14.981832504272461 22.86933135986328,96.52684020996094 22.86933135986328,96.52684020996094 C22.86933135986328,96.52684020996094 -68.17022705078125,79.64436340332031 -68.17022705078125,79.64436340332031 C-66.34708404541016,-7.9756855964660645 -40.92744827270508,-55.80411148071289 -12.335448265075684,-81.22110748291016 C2.7185518741607666,-94.60411071777344 23.058401107788086,-104.80384826660156 35.385398864746094,-105.78085327148438 C35.385398864746094,-105.78085327148438 35.446861267089844,-105.78085327148438 35.446861267089844,-105.78085327148438 C72.02010345458984,-108.65863037109375 119.57820129394531,-64.30555725097656 123.93143463134766,-17.497859954833984z"/></g></g><g style="display: block;" transform="matrix(0.935825765132904,-0.15242941677570343,0.1434672474861145,0.8808033466339111,-29.857133865356445,74.99038696289062)" opacity="1"><g opacity="1" transform="matrix(1,0,0,1,373.989013671875,297.7380065917969)"><path fill="url(#__lottie_element_1503)" fill-opacity="1" d=" M-97.40550231933594,-18.16686248779297 C-75.09725189208984,-51.43071746826172 -18.088712692260742,-107.3013687133789 43.565608978271484,-86.66036987304688 C86.78339385986328,-72.19137573242188 119.20317840576172,-36.981624603271484 103.68164825439453,36.43917465209961 C100.5008773803711,51.484554290771484 87.18426513671875,53.88055419921875 86.21026611328125,33.81455612182617 C83.26126098632812,-26.92844581604004 58.770484924316406,-34.7385368347168 42.583003997802734,-32.91453552246094 C-3.374661445617676,-27.73590660095215 -5.291734218597412,78.0580825805664 -35.8647346496582,92.611083984375 C-85.15573120117188,116.07408142089844 -114.47599792480469,95.39700317382812 -114.47599792480469,95.39700317382812 C-114.47599792480469,95.39700317382812 -113.07736206054688,5.20164155960083 -97.40550231933594,-18.16686248779297z"/></g><g opacity="0.4" transform="matrix(1,0,0,1,364.8559875488281,314.5450134277344)"><path fill="url(#__lottie_element_1504)" fill-opacity="1" d=" M95.28026580810547,15.863554954528809 C95.28026580810547,15.863554954528809 95.28026580810547,15.863554954528809 95.28026580810547,15.863554954528809 C91.96326446533203,-43.93144607543945 67.84960174560547,-50.42153549194336 51.714630126953125,-49.71953582763672 C12.484889030456543,-48.01353454589844 11.537294387817383,35.12222671508789 -15.616734504699707,72.70345306396484 C-23.13573455810547,83.10845184326172 -66.6969985961914,81.22100067138672 -72.87899780273438,84.7490005493164 C-72.87899780273438,84.7490005493164 -107.98899841308594,60.2859992980957 -107.98899841308594,60.2859992980957 C-111.9800033569336,29.71500015258789 -90.66561126708984,-0.7523159980773926 -79.15997314453125,-17.910301208496094 C-73.59224700927734,39.21483612060547 -32.368709564208984,5.695423603057861 -22.10942268371582,-11.354755401611328 C1.6049655675888062,-49.770790100097656 9.021982192993164,-67.764404296875 37.730464935302734,-74.31795501708984 C78.59835052490234,-84.18243408203125 113.14234161376953,-30.089088439941406 95.28026580810547,15.863554954528809z"/></g><g opacity="0.4" transform="matrix(1,0,0,1,371.5429992675781,314.64300537109375)"><path stroke="url(#__lottie_element_1505)" stroke-linecap="round" stroke-linejoin="round" fill-opacity="0" stroke-opacity="1" stroke-width="8" d=" M-33.41873550415039,71.23545837402344 C-3.3867342472076416,36.79845428466797 1.8630895614624023,-65.79853820800781 53.097171783447266,-48.39653396606445"/></g><g opacity="0.3" transform="matrix(1,0,0,1,379.0799865722656,267.92498779296875)"><path stroke="url(#__lottie_element_1506)" stroke-linecap="round" stroke-linejoin="round" fill-opacity="0" stroke-opacity="1" stroke-width="8" d=" M-97.38829803466797,18.296104431152344 C-97.38829803466797,18.296104431152344 -56.26705551147461,-43.9109992980957 -1.344122052192688,-52.2713737487793 C39.37303924560547,-58.4693717956543 102.88538360595703,-36.6379508972168 97.25858306884766,62.19969177246094"/></g><g opacity="1" transform="matrix(1,0,0,1,374.7869873046875,296.2139892578125)"><path stroke="url(#__lottie_element_1507)" stroke-linecap="round" stroke-linejoin="round" fill-opacity="0" stroke-opacity="1" stroke-width="8" d=" M102.88190460205078,37.967803955078125 C99.70750427246094,53.00755310058594 86.38226318359375,55.40255355834961 85.41326141357422,35.341556549072266 C82.46426391601562,-25.401445388793945 57.92034149169922,-33.94216537475586 41.78400421142578,-31.389163970947266 C-6.539958477020264,-23.744163513183594 -6.0897345542907715,87.46745300292969 -36.66273498535156,94.13545227050781 C-90.00773620605469,105.77045440673828 -115.2770004272461,96.91899871826172 -115.2770004272461,96.91899871826172 C-115.2770004272461,96.91899871826172 -115.35099792480469,96.45500183105469 -115.48799896240234,95.59200286865234 C-109.24299621582031,91.67500305175781 -101.00700378417969,86.38600158691406 -101.00700378417969,86.38600158691406 C-90.51799774169922,37.19599914550781 -91.70948791503906,-5.299954891204834 -98.20350646972656,-16.64286231994629 C-75.8896255493164,-49.90634536743164 -18.888456344604492,-105.77888488769531 42.768611907958984,-85.1353759765625 C85.98202514648438,-70.66637420654297 118.3907241821289,-35.46051025390625 102.88190460205078,37.967803955078125z"/></g><g opacity="1" transform="matrix(1,0,0,1,365.5039978027344,322.76300048828125)"><path stroke-linecap="round" stroke-linejoin="round" fill-opacity="0" stroke="rgb(186,59,171)" stroke-opacity="1" stroke-width="8" d=" M94.6962661743164,8.79255485534668 C91.74726104736328,-51.950443267822266 67.20333862304688,-60.49116516113281 51.06700134277344,-57.93816375732422 C2.743041515350342,-50.29316329956055 3.193265676498413,60.918453216552734 -27.37973403930664,67.58645629882812 C-80.7247314453125,79.2214584350586 -105.99400329589844,70.37000274658203 -105.99400329589844,70.37000274658203 C-105.99400329589844,70.37000274658203 -106.06800079345703,69.90599822998047 -106.20500183105469,69.04299926757812 C-99.95999908447266,65.12537384033203 -91.7239990234375,59.83700180053711 -91.7239990234375,59.83700180053711"/></g><g opacity="0.1" transform="matrix(1,0,0,1,367.6510009765625,277.9309997558594)"><path stroke="url(#__lottie_element_1508)" stroke-linecap="round" stroke-linejoin="round" fill-opacity="0" stroke-opacity="1" stroke-dasharray=" 3 20" stroke-dashoffset="20" stroke-width="6" d=" M-32.492061614990234,55.09999465942383 C-32.492061614990234,55.09999465942383 8.627604484558105,-56.37622833251953 61.33964920043945,-30.605371475219727"/></g></g><g style="display: block;" transform="matrix(0.935825765132904,-0.15242941677570343,0.1434672474861145,0.8808033466339111,-19.515548706054688,73.30592346191406)" opacity="1"><g opacity="1" transform="matrix(1,0,0,1,120.66799926757812,305.0589904785156)"><path fill="url(#__lottie_element_1512)" fill-opacity="1" d=" M-123.80528259277344,46.34476089477539 C-131.3519287109375,46.4918098449707 -136.04537963867188,-11.138887405395508 -118.13610076904297,-41.92542266845703 C-74.2666015625,-114.37911224365234 27.3990535736084,-123.09734344482422 80.75041198730469,-39.38985061645508 C135.08836364746094,45.799095153808594 71.49781036376953,74.32447052001953 52.50038146972656,71.0854721069336 C33.502952575683594,67.84647369384766 2.076415777206421,11.549845695495605 -12.277894973754883,-12.501657485961914 C-33.55131912231445,-47.828407287597656 -74.32009887695312,-37.51071548461914 -93.19566345214844,-10.939666748046875 C-108.56765747070312,12.349549293518066 -114.41114044189453,46.2166633605957 -123.80528259277344,46.34476089477539z"/></g><g opacity="0.4" transform="matrix(1,0,0,1,116.6050033569336,319.0429992675781)"><path fill="url(#__lottie_element_1513)" fill-opacity="1" d=" M91.70028686523438,44.076881408691406 C82.12728881835938,56.09288024902344 65.65888214111328,57.79813003540039 57.38188171386719,56.418128967285156 C37.909881591796875,53.17512893676758 2.8220572471618652,-6.059703826904297 -8.761942863464355,-28.205703735351562 C-23.473941802978516,-56.33370590209961 -68.34175109863281,-54.99786376953125 -88.0667495727539,-26.64271354675293 C-112.25664520263672,8.332465171813965 -114.67159271240234,29.616010665893555 -114.67159271240234,29.616010665893555 C-114.67159271240234,29.616010665893555 -112.48884582519531,-41.54513931274414 -66.48857116699219,-64.55321502685547 C1.525696873664856,-98.5538101196289 38.750301361083984,10.237303733825684 76.8792724609375,-32.23907470703125 C79.21917724609375,-10.594059944152832 83.98128509521484,32.797882080078125 91.70028686523438,44.076881408691406z"/></g><g opacity="0.3" transform="matrix(1,0,0,1,130.66400146484375,314.572998046875)"><path stroke="url(#__lottie_element_1514)" stroke-linecap="round" stroke-linejoin="round" fill-opacity="0" stroke-opacity="1" stroke-width="8" d=" M-81.82003021240234,-38.154361724853516 C-81.82003021240234,-38.154361724853516 -49.5108757019043,-71.59098815917969 -22.325061798095703,-33.934120178222656 C-3.530886650085449,-6.483447551727295 19.916658401489258,36.11948013305664 38.523658752441406,50.57948303222656"/></g><g opacity="0.3" transform="matrix(1,0,0,1,115.00199890136719,290.5830078125)"><path stroke="url(#__lottie_element_1515)" stroke-linecap="round" stroke-linejoin="round" fill-opacity="0" stroke-opacity="1" stroke-width="8" d=" M-121.96885681152344,34.128604888916016 C-121.96885681152344,34.128604888916016 -121.23825073242188,-26.48634147644043 -77.40828704833984,-56.0040397644043 C-18.695215225219727,-94.63288879394531 59.3158073425293,-81.52314758300781 102.36383056640625,7.706008434295654"/></g><g opacity="0.1" transform="matrix(1,0,0,1,189.27099609375,290.1090087890625)"><path stroke="url(#__lottie_element_1516)" stroke-linecap="round" stroke-linejoin="round" fill-opacity="0" stroke-opacity="1" stroke-dasharray=" 3 20 3 20" stroke-dashoffset="0" stroke-width="6" d=" M-130.35462951660156,-36.355926513671875 C-130.35462951660156,-36.355926513671875 -73.41832733154297,-68.60531616210938 8.246406555175781,70.98165893554688"/></g><g opacity="1" transform="matrix(1,0,0,1,120.66799926757812,305.0589904785156)"><path stroke="url(#__lottie_element_1517)" stroke-linecap="round" stroke-linejoin="round" fill-opacity="0" stroke-opacity="1" stroke-width="8" d=" M-123.80528259277344,46.34476089477539 C-131.3519287109375,46.4918098449707 -136.04537963867188,-11.138887405395508 -118.13610076904297,-41.92542266845703 C-74.2666015625,-114.37911224365234 27.3990535736084,-123.09734344482422 80.75041198730469,-39.38985061645508 C135.08836364746094,45.7984733581543 71.49781036376953,74.32447052001953 52.50038146972656,71.0854721069336 C33.502952575683594,67.84647369384766 2.076415777206421,11.549845695495605 -12.277894973754883,-12.501657485961914 C-33.55131912231445,-47.828407287597656 -74.32009887695312,-37.51071548461914 -93.19566345214844,-10.939666748046875 C-108.56765747070312,12.349549293518066 -114.41114044189453,46.2166633605957 -123.80528259277344,46.34476089477539z"/></g></g><g style="display: block;" transform="matrix(0.7638176083564758,-0.4082171320915222,0.4177416265010834,0.7134478092193604,-46.31398391723633,262.3495178222656)" opacity="1"><g opacity="1" transform="matrix(1,0,0,1,477.7669982910156,355.09698486328125)"><path fill="url(#__lottie_element_1522)" fill-opacity="1" d=" M-26.760000228881836,-5.2220001220703125 C-29.643999099731445,9.557000160217285 -20.000999450683594,23.875999450683594 -5.2220001220703125,26.760000228881836 C9.557000160217285,29.643999099731445 23.875999450683594,20.000999450683594 26.760000228881836,5.2220001220703125 C29.643999099731445,-9.557000160217285 20.000999450683594,-23.875999450683594 5.2220001220703125,-26.760000228881836 C-9.557000160217285,-29.643999099731445 -23.875999450683594,-20.000999450683594 -26.760000228881836,-5.2220001220703125z"/></g><g opacity="0.5" transform="matrix(1,0,0,1,477.0270080566406,358.8890075683594)"><path stroke="url(#__lottie_element_1523)" stroke-linecap="round" stroke-linejoin="round" fill-opacity="0" stroke-opacity="1" stroke-width="8" d=" M-23.893999099731445,-4.663000106811523 C-26.368999481201172,8.020999908447266 -17.67799949645996,20.392000198364258 -4.48199987411499,22.966999053955078 C8.71399974822998,25.54199981689453 21.41900062561035,17.347999572753906 23.893999099731445,4.663000106811523 C26.368999481201172,-8.022000312805176 17.67799949645996,-20.392000198364258 4.48199987411499,-22.966999053955078 C-8.71399974822998,-25.54199981689453 -21.41900062561035,-17.347999572753906 -23.893999099731445,-4.663000106811523z"/></g><g opacity="1" transform="matrix(1,0,0,1,477.7669982910156,355.09698486328125)"><path stroke="url(#__lottie_element_1524)" stroke-linecap="round" stroke-linejoin="round" fill-opacity="0" stroke-opacity="1" stroke-width="8" d=" M-26.760000228881836,-5.2220001220703125 C-29.643999099731445,9.557000160217285 -20.000999450683594,23.875999450683594 -5.2220001220703125,26.760000228881836 C9.557000160217285,29.643999099731445 23.875999450683594,20.000999450683594 26.760000228881836,5.2220001220703125 C29.643999099731445,-9.557000160217285 20.000999450683594,-23.875999450683594 5.2220001220703125,-26.760000228881836 C-9.557000160217285,-29.643999099731445 -23.875999450683594,-20.000999450683594 -26.760000228881836,-5.2220001220703125z"/></g><g opacity="1" transform="matrix(1,0,0,1,491.0090026855469,357.7449951171875)"><path stroke-linecap="round" stroke-linejoin="round" fill-opacity="0" stroke="rgb(110,66,8)" stroke-opacity="1" stroke-width="8" d=" M12.800000190734863,4.915999889373779 C12.800000190734863,4.915999889373779 7.5806097984313965,-3.720411539077759 -9.572220802307129,-3.595940113067627"/></g><g opacity="1" transform="matrix(1,0,0,1,477.5690002441406,352.6619873046875)"><path stroke-linecap="round" stroke-linejoin="round" fill-opacity="0" stroke="rgb(110,66,8)" stroke-opacity="1" stroke-width="12" d=" M3.362654447555542,-0.4696696400642395 C3.362654447555542,-0.4696696400642395 3.1194934844970703,3.0492336750030518 3.1194934844970703,3.0492336750030518"/></g></g><g style="display: block;" transform="matrix(0.8636541962623596,-0.3257231116294861,0.3284318745136261,0.8093145489692688,21.343448638916016,136.91993713378906)" opacity="1"><g opacity="1" transform="matrix(1,0,0,1,336.4020080566406,174.80099487304688)"><path fill="url(#__lottie_element_1529)" fill-opacity="1" d=" M27.961999893188477,-2.4749999046325684 C29.32900047302246,12.968000411987305 17.917999267578125,26.594999313354492 2.4749999046325684,27.961999893188477 C-12.968000411987305,29.32900047302246 -26.594999313354492,17.917999267578125 -27.961999893188477,2.4749999046325684 C-29.32900047302246,-12.968000411987305 -17.917999267578125,-26.594999313354492 -2.4749999046325684,-27.961999893188477 C12.968000411987305,-29.32900047302246 26.594999313354492,-17.917999267578125 27.961999893188477,-2.4749999046325684z"/></g><g opacity="0.5" transform="matrix(1,0,0,1,336.75299072265625,178.76400756835938)"><path stroke="url(#__lottie_element_1530)" stroke-linecap="round" stroke-linejoin="round" fill-opacity="0" stroke-opacity="1" stroke-width="8" d=" M24.968000411987305,-2.2100000381469727 C26.141000747680664,11.045000076293945 15.913000106811523,22.777999877929688 2.124000072479248,23.999000549316406 C-11.664999961853027,25.219999313354492 -23.795000076293945,15.46500015258789 -24.968000411987305,2.2100000381469727 C-26.141000747680664,-11.043999671936035 -15.913000106811523,-22.77899932861328 -2.124000072479248,-23.999000549316406 C11.664999961853027,-25.219999313354492 23.795000076293945,-15.46399974822998 24.968000411987305,-2.2100000381469727z"/></g><g opacity="1" transform="matrix(1,0,0,1,336.4020080566406,174.80099487304688)"><path stroke="url(#__lottie_element_1531)" stroke-linecap="round" stroke-linejoin="round" fill-opacity="0" stroke-opacity="1" stroke-width="8" d=" M27.961999893188477,-2.4749999046325684 C29.32900047302246,12.968000411987305 17.917999267578125,26.594999313354492 2.4749999046325684,27.961999893188477 C-12.968000411987305,29.32900047302246 -26.594999313354492,17.917999267578125 -27.961999893188477,2.4749999046325684 C-29.32900047302246,-12.968000411987305 -17.917999267578125,-26.594999313354492 -2.4749999046325684,-27.961999893188477 C12.968000411987305,-29.32900047302246 26.594999313354492,-17.917999267578125 27.961999893188477,-2.4749999046325684z"/></g><g opacity="1" transform="matrix(1,0,0,1,336.4960021972656,173.9290008544922)"><path stroke-linecap="round" stroke-linejoin="round" fill-opacity="0" stroke="rgb(110,66,8)" stroke-opacity="1" stroke-width="8" d=" M-4.945163249969482,1.79616117477417 C-4.945163249969482,1.79616117477417 7.6863694190979,-3.7456979751586914 19.31593132019043,-0.5884950160980225"/></g><g opacity="1" transform="matrix(1,0,0,1,352.739013671875,172.83700561523438)"><path stroke-linecap="round" stroke-linejoin="round" fill-opacity="0" stroke="rgb(110,66,8)" stroke-opacity="1" stroke-width="12" d=" M3.6376163959503174,-0.5413476824760437 C3.6376163959503174,-0.5413476824760437 3.275285243988037,1.137662410736084 3.275285243988037,1.137662410736084"/></g><g opacity="1" transform="matrix(1,0,0,1,317.37200927734375,177.51600646972656)"><path stroke-linecap="round" stroke-linejoin="round" fill-opacity="0" stroke="rgb(110,66,8)" stroke-opacity="1" stroke-width="12" d=" M9.970836639404297,-2.3843014240264893 C9.970836639404297,-2.3843014240264893 11.182836532592773,0.6101611852645874 11.182836532592773,0.6101611852645874"/></g></g><g style="display: block;" transform="matrix(0.935825765132904,-0.15242941677570343,0.1434672474861145,0.8808033466339111,1.5981767177581787,69.86687469482422)" opacity="1"><g opacity="1" transform="matrix(1,0,0,1,179.48500061035156,295.5159912109375)"><path fill="url(#__lottie_element_1535)" fill-opacity="1" d=" M98.07840728759766,83.57877349853516 C101.98336029052734,45.312965393066406 57.141883850097656,23.026607513427734 47.09222412109375,3.5204882621765137 C32.95853805541992,-22.32874870300293 49.66169357299805,-135.36752319335938 -9.481305122375488,-121.64451599121094 C-63.21830368041992,-109.17652130126953 -22.170141220092773,18.5297794342041 -14.801183700561523,26.25634002685547 C-21.50458526611328,18.71295166015625 -50.144805908203125,-57.262943267822266 -32.06827163696289,-95.7644271850586 C-49.73655700683594,-61.22755432128906 -37.41400146484375,42.57801818847656 -40.44015884399414,84.63285827636719 C-40.44015884399414,84.63285827636719 -26.83300018310547,100.56999969482422 30.974000930786133,102.80699920654297 C88.78099822998047,105.04399871826172 98.07840728759766,83.57877349853516 98.07840728759766,83.57877349853516z"/></g><g opacity="0.4" transform="matrix(1,0,0,1,155.30599975585938,312.489013671875)"><path stroke="url(#__lottie_element_1536)" stroke-linecap="round" stroke-linejoin="round" fill-opacity="0" stroke-opacity="1" stroke-width="8" d=" M-21.435062408447266,-46.83892822265625 C-21.435062408447266,-46.83892822265625 -15.847661972045898,4.04702615737915 -12.540020942687988,62.4739990234375"/></g><g opacity="0.5" transform="matrix(1,0,0,1,184.1219940185547,256.9909973144531)"><path stroke="url(#__lottie_element_1537)" stroke-linecap="round" stroke-linejoin="round" fill-opacity="0" stroke-opacity="1" stroke-width="8" d=" M-49.362430572509766,-2.310835123062134 C-45.45269775390625,-22.136531829833984 -34.183231353759766,-81.47757720947266 9.880188941955566,-74.6960220336914 C42.624393463134766,-70.31184387207031 80.63330078125,-2.231968402862549 86.9959487915039,33.699859619140625"/></g><g opacity="1" transform="matrix(1,0,0,1,184.08799743652344,295.4750061035156)"><path stroke="url(#__lottie_element_1538)" stroke-linecap="round" stroke-linejoin="round" fill-opacity="0" stroke-opacity="1" stroke-width="8" d=" M93.47541046142578,83.62023162841797 C97.38036346435547,45.35442352294922 52.538883209228516,23.067607879638672 42.48922348022461,3.561488389968872 C28.35553741455078,-22.287750244140625 45.05869674682617,-135.32652282714844 -14.084304809570312,-121.603515625 C-67.82130432128906,-109.1355209350586 -26.773141860961914,18.571237564086914 -19.404184341430664,26.29779815673828 C-26.10758399963379,18.75440788269043 -54.747806549072266,-57.22194290161133 -36.67127227783203,-95.72342681884766 C-54.33955764770508,-61.186553955078125 -42.016998291015625,42.620018005371094 -45.043155670166016,84.67485809326172 C-45.043155670166016,84.67485809326172 -31.43600082397461,100.61199951171875 26.371000289916992,102.8489990234375 C84.1780014038086,105.08599853515625 93.47541046142578,83.62023162841797 93.47541046142578,83.62023162841797z"/></g><g opacity="1" transform="matrix(1,0,0,1,190.56100463867188,295.64599609375)"><path fill="url(#__lottie_element_1539)" fill-opacity="1" d=" M87.00186920166016,83.44877624511719 C87.00186920166016,83.44877624511719 77.69999694824219,104.91200256347656 19.895999908447266,102.67900085449219 C15.093999862670898,102.48899841308594 10.692000389099121,102.20500183105469 6.669000148773193,101.82599639892578 C6.447999954223633,100.12000274658203 6.0971784591674805,81.0309066772461 5.969425678253174,79.25399780273438 C5.955847263336182,58.32831573486328 4.857169151306152,35.42728042602539 3.340771436691284,21.32756233215332 C10.500701904296875,9.136458396911621 5.408212661743164,-53.21086120605469 0.8001151084899902,-46.87576675415039 C-0.9327589273452759,-44.26823425292969 -9.412919044494629,23.75830841064453 -25.296998977661133,27.670080184936523 C-29.37299919128418,-77.44992065429688 -30.694305419921875,-124.50106048583984 1.2986948490142822,-123.03706359863281 C1.2986948490142822,-123.03706359863281 1.308694839477539,-123.04751586914062 1.308694839477539,-123.04751586914062 C46.40991973876953,-114.02561950683594 70.73798370361328,-46.142181396484375 78.10800170898438,-24.67099952697754 C85.40675354003906,-3.3455402851104736 90.9042739868164,45.17850875854492 87.00186920166016,83.44877624511719z"/></g><g opacity="0.3" transform="matrix(1,0,0,1,190.52000427246094,310.50201416015625)"><path fill="url(#__lottie_element_1540)" fill-opacity="1" d=" M86.10851287841797,87.5469970703125 C82.0204849243164,88.28399658203125 20.46091079711914,88.7874984741211 14.000550270080566,88.34949493408203 C11.205705642700195,88.15949249267578 5.350111484527588,48.19297409057617 5.341580390930176,46.4129753112793 C4.166837215423584,-13.565777778625488 7.286733150482178,-66.31586456298828 1.745550513267517,-61.34486389160156 C-8.999120712280273,-53.22586441040039 -12.603808403015137,-1.5060714483261108 -23.16739273071289,18.628929138183594 C-23.38187599182129,9.119928359985352 -14.369866371154785,-11.255000114440918 -12.089802742004395,-25.264999389648438 C-8.721757888793945,-45.96200180053711 -12.19787311553955,-84.12947082519531 7.58023738861084,-87.60746765136719 C26.911270141601562,-91.0074691772461 46.12467956542969,-55.59974670410156 57.60306930541992,-15.488747596740723 C67.51346588134766,19.14425277709961 85.26829528808594,27.687999725341797 80.18647766113281,-34.19599914550781 C79.77916717529297,-39.15599822998047 96.1239242553711,23.54400062561035 86.10851287841797,87.5469970703125z"/></g><g opacity="0.1" transform="matrix(1,0,0,1,189.27099609375,290.1090087890625)"><path stroke="url(#__lottie_element_1541)" stroke-linecap="round" stroke-linejoin="round" fill-opacity="0" stroke-opacity="1" stroke-dasharray=" 3 20 3 20" stroke-dashoffset="40.23915100097656" stroke-width="6" d=" M13.997084617614746,-63.00299835205078 C13.997084617614746,-63.00299835205078 41.08930969238281,-83.12999725341797 52.59700012207031,63.941001892089844"/></g><g opacity="1" transform="matrix(1,0,0,1,190.56100463867188,295.64599609375)"><path stroke="url(#__lottie_element_1542)" stroke-linecap="round" stroke-linejoin="round" fill-opacity="0" stroke-opacity="1" stroke-width="8" d=" M87.00186920166016,83.44877624511719 C87.00186920166016,83.44877624511719 77.69999694824219,104.91200256347656 19.895999908447266,102.67900085449219 C15.093999862670898,102.48999786376953 10.692000389099121,102.20500183105469 6.669000148773193,101.82599639892578 C6.447999954223633,100.12000274658203 6.0971784591674805,81.0309066772461 5.969425678253174,79.25399780273438 C5.955847263336182,58.32831573486328 4.857169151306152,35.42728042602539 3.340771436691284,21.32756233215332 C10.500701904296875,9.136458396911621 5.408212661743164,-53.21086120605469 0.8001151084899902,-46.87576675415039 C-0.9327589273452759,-44.26823425292969 -9.412919044494629,23.75830841064453 -25.296998977661133,27.670080184936523 C-29.37299919128418,-77.44992065429688 -30.694305419921875,-124.50106048583984 1.2986948490142822,-123.03706359863281 C1.2986948490142822,-123.03706359863281 1.308694839477539,-123.04751586914062 1.308694839477539,-123.04751586914062 C46.40991973876953,-114.02561950683594 70.73798370361328,-46.142181396484375 78.10800170898438,-24.67099952697754 C85.40675354003906,-3.3455402851104736 90.9042739868164,45.17850875854492 87.00186920166016,83.44877624511719z"/></g></g><g style="display: block;" transform="matrix(0.935825765132904,-0.15242941677570343,0.1434672474861145,0.8808033466339111,-19.515548706054688,73.30592346191406)" opacity="1"><g opacity="1" transform="matrix(1,0,0,1,245.55099487304688,410.69500732421875)"><path fill="rgb(214,141,10)" fill-opacity="1" d=" M92.19400024414062,6.376999855041504 C92.08300018310547,9.763999938964844 63.02399826049805,13.315999984741211 8.355999946594238,13.142999649047852 C-48.21900177001953,12.963000297546387 -92.96700286865234,11.35200023651123 -92.18599700927734,4.1020002365112305 C-91.40499877929688,-3.1480000019073486 -16.89900016784668,-13.387999534606934 4.7829999923706055,-13.144000053405762 C26.464000701904297,-12.899999618530273 92.54199981689453,-4.302000045776367 92.19400024414062,6.376999855041504z"/><path stroke-linecap="round" stroke-linejoin="round" fill-opacity="0" stroke="rgb(169,94,23)" stroke-opacity="1" stroke-width="8" d=" M92.19400024414062,6.376999855041504 C92.08300018310547,9.763999938964844 63.02399826049805,13.315999984741211 8.355999946594238,13.142999649047852 C-48.21900177001953,12.963000297546387 -92.96700286865234,11.35200023651123 -92.18599700927734,4.1020002365112305 C-91.40499877929688,-3.1480000019073486 -16.89900016784668,-13.387999534606934 4.7829999923706055,-13.144000053405762 C26.464000701904297,-12.899999618530273 92.54199981689453,-4.302000045776367 92.19400024414062,6.376999855041504z"/></g><g opacity="1" transform="matrix(1,0,0,1,245.33900451660156,377.7149963378906)"><path fill="url(#__lottie_element_1546)" fill-opacity="1" d=" M106.85900115966797,-7.043000221252441 C106.85900115966797,-7.043000221252441 98.90919494628906,4.039999961853027 92.40519714355469,39.356998443603516 C92.40519714355469,39.356998443603516 62.00600051879883,28.892000198364258 3.0739998817443848,29.392000198364258 C-55.858001708984375,29.892000198364258 -91.9739990234375,37.082000732421875 -91.9739990234375,37.082000732421875 C-91.9739990234375,37.082000732421875 -93.13200378417969,9.838000297546387 -106.85900115966797,-16.02400016784668 C-106.85900115966797,-16.02400016784668 -106.8038558959961,-15.983306884765625 -106.70390319824219,-15.90592098236084 C-106.56847381591797,-15.801932334899902 -106.34388732910156,-15.63026237487793 -106.0488510131836,-15.403746604919434 C-105.59904479980469,-15.057926177978516 -104.97174835205078,-14.579353332519531 -104.22328186035156,-14.006660461425781 C-102.42292785644531,-12.628533363342285 -99.90641021728516,-10.70031452178955 -97.3359375,-8.726432800292969 C-92.03121948242188,-4.653141498565674 -86.49763488769531,-0.3847507834434509 -86.55879211425781,-0.35339051485061646 C-86.6410140991211,-0.28116926550865173 -84.65032958984375,-11.730937004089355 -84.64838409423828,-22.75170135498047 C-74.12483215332031,-20.239604949951172 -58.85103225708008,-5.871333122253418 -53.19188690185547,2.2015750408172607 C-53.19188690185547,2.2015750408172607 -47.036659240722656,-16.058441162109375 -41.31437301635742,-29.132015228271484 C-41.31437301635742,-29.132015228271484 -22.526229858398438,-22.228744506835938 -10.104482650756836,1.5675766468048096 C-10.104482650756836,1.5675766468048096 8.744938850402832,-17.786876678466797 14.865434646606445,-37.30781173706055 C14.865434646606445,-37.30781173706055 30.178327560424805,-22.702838897705078 40.73739242553711,1.6349328756332397 C40.73739242553711,1.6349328756332397 52.597660064697266,-15.038116455078125 67.80418395996094,-22.240652084350586 C67.80418395996094,-22.240652084350586 70.79154205322266,-3.5711967945098877 76.46511840820312,8.470876693725586 C76.46511840820312,8.470876693725586 87.23344421386719,-5.117305278778076 101.16768646240234,-9.715394020080566 C101.16768646240234,-9.715394020080566 101.80201721191406,-6.611939430236816 102.07438659667969,-3.8433141708374023 C102.07438659667969,-3.8433141708374023 104.26179504394531,-6.263177871704102 106.85900115966797,-7.043000221252441z"/></g><g opacity="0.4" transform="matrix(1,0,0,1,210.3583984375,386.70098876953125)"><path fill="url(#__lottie_element_1547)" fill-opacity="1" d=" M7.230999946594238,-21.76799964904785 C7.230999946594238,-21.76799964904785 -18.018999099731445,21.76799964904785 -18.018999099731445,21.76799964904785 C-18.018999099731445,21.76799964904785 -0.6140000224113464,21.76799964904785 -0.6140000224113464,21.76799964904785 C-0.6140000224113464,21.76799964904785 18.018999099731445,-7.6579999923706055 18.018999099731445,-7.6579999923706055 C18.018999099731445,-7.6579999923706055 7.230999946594238,-21.76799964904785 7.230999946594238,-21.76799964904785z"/></g><g opacity="0.4" transform="matrix(1,0,0,1,252.10739135742188,377.7149963378906)"><path fill="url(#__lottie_element_1548)" fill-opacity="1" d=" M9.579999923706055,-28.84000015258789 C9.579999923706055,-28.84000015258789 -23.871999740600586,28.84000015258789 -23.871999740600586,28.84000015258789 C-23.871999740600586,28.84000015258789 -0.8130000233650208,28.84000015258789 -0.8130000233650208,28.84000015258789 C-0.8130000233650208,28.84000015258789 23.871999740600586,-10.145999908447266 23.871999740600586,-10.145999908447266 C23.871999740600586,-10.145999908447266 9.579999923706055,-28.84000015258789 9.579999923706055,-28.84000015258789z"/></g><g opacity="0.8" transform="matrix(1,0,0,1,153.85299682617188,389.7229919433594)"><path stroke="url(#__lottie_element_1549)" stroke-linecap="round" stroke-linejoin="round" fill-opacity="0" stroke-opacity="1" stroke-width="8" d=" M-6.695000171661377,-23.844999313354492 C-6.695000171661377,-23.844999313354492 6.627999782562256,-5.879000186920166 6.695000171661377,23.844999313354492"/></g><g opacity="0.8" transform="matrix(1,0,0,1,336.9259948730469,394.8599853515625)"><path stroke="url(#__lottie_element_1550)" stroke-linecap="round" stroke-linejoin="round" fill-opacity="0" stroke-opacity="1" stroke-width="8" d=" M-6.1479997634887695,18.70800018310547 C-6.1479997634887695,18.70800018310547 -3.9230000972747803,0 6.1479997634887695,-18.70800018310547"/></g><g opacity="1" transform="matrix(1,0,0,1,245.33900451660156,378.7919921875)"><path stroke="url(#__lottie_element_1551)" stroke-linecap="round" stroke-linejoin="round" fill-opacity="0" stroke-opacity="1" stroke-width="8" d=" M106.85900115966797,-8.119999885559082 C106.85900115966797,-8.119999885559082 98.90919494628906,2.9619998931884766 92.40519714355469,38.27899932861328 C92.40519714355469,38.27899932861328 62.00600051879883,27.815000534057617 3.0739998817443848,28.315000534057617 C-55.858001708984375,28.815000534057617 -91.9739990234375,36.005001068115234 -91.9739990234375,36.005001068115234 C-91.9739990234375,36.005001068115234 -93.13200378417969,8.76099967956543 -106.85900115966797,-17.10099983215332 C-106.85900115966797,-17.10099983215332 -106.8038558959961,-17.060306549072266 -106.70390319824219,-16.982919692993164 C-106.56847381591797,-16.87893295288086 -106.34388732910156,-16.707456588745117 -106.0488510131836,-16.480939865112305 C-105.59904479980469,-16.135120391845703 -104.97174835205078,-15.657159805297852 -104.22328186035156,-15.084466934204102 C-102.42292785644531,-13.706339836120605 -99.90641021728516,-11.777314186096191 -97.3359375,-9.80343246459961 C-92.03121948242188,-5.730141639709473 -86.49763488769531,-1.4617507457733154 -86.55879211425781,-1.430390477180481 C-86.6410140991211,-1.3581693172454834 -84.65032958984375,-12.807324409484863 -84.64838409423828,-23.828895568847656 C-74.12483215332031,-21.31679916381836 -58.85103225708008,-6.948333263397217 -53.19188690185547,1.1245750188827515 C-53.19188690185547,1.1245750188827515 -47.036659240722656,-17.136245727539062 -41.31437301635742,-30.209821701049805 C-41.31437301635742,-30.209821701049805 -22.526229858398438,-23.305744171142578 -10.104482650756836,0.4905766546726227 C-10.104482650756836,0.4905766546726227 8.744938850402832,-18.864683151245117 14.865434646606445,-38.3856201171875 C14.865434646606445,-38.3856201171875 30.178327560424805,-23.77983856201172 40.73739242553711,0.5579329133033752 C40.73739242553711,0.5579329133033752 52.597660064697266,-16.115116119384766 67.80418395996094,-23.317651748657227 C67.80418395996094,-23.317651748657227 70.79154205322266,-4.648390769958496 76.46511840820312,7.393682956695557 C76.46511840820312,7.393682956695557 87.23344421386719,-6.195305347442627 101.16768646240234,-10.7933931350708 C101.16768646240234,-10.7933931350708 101.80201721191406,-7.689133167266846 102.07438659667969,-4.920507907867432 C102.07438659667969,-4.920507907867432 104.26179504394531,-7.3401780128479 106.85900115966797,-8.119999885559082z"/></g><g opacity="1" transform="matrix(1,0,0,1,245.55499267578125,412.08099365234375)"><path stroke-linecap="round" stroke-linejoin="round" fill-opacity="0" stroke="rgb(191,111,25)" stroke-opacity="1" stroke-width="8" d=" M92.19000244140625,4.991000175476074 C92.19000244140625,4.991000175476074 61.79100036621094,-5.4730000495910645 2.8589999675750732,-4.9730000495910645 C-56.073001861572266,-4.4730000495910645 -92.19000244140625,2.7160000801086426 -92.19000244140625,2.7160000801086426"/></g></g><g style="display: block;" transform="matrix(0.9696596264839172,-0.38753750920295715,0.3918743133544922,0.908230185508728,-140.4755401611328,61.70071792602539)" opacity="1"><g opacity="1" transform="matrix(1,0,0,1,28.735000610351562,378.9469909667969)"><path fill="url(#__lottie_element_1556)" fill-opacity="1" d=" M18.937000274658203,-6.2230000495910645 C22.374000549316406,4.236000061035156 16.68199920654297,15.5 6.2230000495910645,18.937000274658203 C-4.235000133514404,22.374000549316406 -15.5,16.68199920654297 -18.937000274658203,6.2230000495910645 C-22.374000549316406,-4.235000133514404 -16.680999755859375,-15.5 -6.2230000495910645,-18.937000274658203 C4.236000061035156,-22.374000549316406 15.5,-16.68199920654297 18.937000274658203,-6.2230000495910645z"/></g><g opacity="0.5" transform="matrix(1,0,0,1,29.617000579833984,381.6300048828125)"><path stroke="url(#__lottie_element_1557)" stroke-linecap="round" stroke-linejoin="round" fill-opacity="0" stroke-opacity="1" stroke-width="7.290513636363636" d=" M16.909000396728516,-5.557000160217285 C19.858999252319336,3.4200000762939453 14.680000305175781,13.184000015258789 5.341000080108643,16.253000259399414 C-3.997999906539917,19.32200050354004 -13.958999633789062,14.534000396728516 -16.909000396728516,5.557000160217285 C-19.858999252319336,-3.4200000762939453 -14.680000305175781,-13.184000015258789 -5.341000080108643,-16.253000259399414 C3.997999906539917,-19.32200050354004 13.958999633789062,-14.532999992370605 16.909000396728516,-5.557000160217285z"/></g><g opacity="1" transform="matrix(1,0,0,1,28.735000610351562,378.9469909667969)"><path stroke="url(#__lottie_element_1558)" stroke-linecap="round" stroke-linejoin="round" fill-opacity="0" stroke-opacity="1" stroke-width="7.290513636363636" d=" M18.937000274658203,-6.2230000495910645 C22.374000549316406,4.236000061035156 16.68199920654297,15.5 6.2230000495910645,18.937000274658203 C-4.235000133514404,22.374000549316406 -15.5,16.68199920654297 -18.937000274658203,6.2230000495910645 C-22.374000549316406,-4.235000133514404 -16.680999755859375,-15.5 -6.2230000495910645,-18.937000274658203 C4.236000061035156,-22.374000549316406 15.5,-16.68199920654297 18.937000274658203,-6.2230000495910645z"/></g><g opacity="0" transform="matrix(1,0,0,1,27.631000518798828,379.11199951171875)"><path stroke-linecap="round" stroke-linejoin="round" fill-opacity="0" stroke="rgb(110,66,8)" stroke-opacity="1" stroke-width="11.4342441117936" d=" M-9.255999565124512,16.700000762939453 C-9.255999565124512,16.700000762939453 -9.244000434875488,16.799999237060547 -9.244000434875488,16.799999237060547"/></g><g opacity="1" transform="matrix(1,0,0,1,22.781999588012695,388.0889892578125)"><path stroke-linecap="round" stroke-linejoin="round" fill-opacity="0" stroke="rgb(110,66,8)" stroke-opacity="1" stroke-width="7.575683083845201" d=" M-4.27400016784668,8.038999557495117 C-4.27400016784668,8.038999557495117 -2.8589999675750732,0 4.27400016784668,-8.038999557495117"/></g><g opacity="1" transform="matrix(1,0,0,1,27.631000518798828,379.11199951171875)"><path stroke-linecap="round" stroke-linejoin="round" fill-opacity="0" stroke="rgb(110,66,8)" stroke-opacity="1" stroke-width="11.4342441117936" d=" M1.2519999742507935,0.5830000042915344 C1.2519999742507935,0.5830000042915344 -1.2519999742507935,-0.5830000042915344 -1.2519999742507935,-0.5830000042915344"/></g></g><g style="display: block;" transform="matrix(0.9384151101112366,-0.13543856143951416,0.12541842460632324,0.8835754990577698,68.82664489746094,57.5458869934082)" opacity="1"><g opacity="1" transform="matrix(1,0,0,1,97.5469970703125,349.8949890136719)"><path fill="url(#__lottie_element_1563)" fill-opacity="1" d=" M27.263999938964844,0 C27.263999938964844,15.057999610900879 15.057999610900879,27.263999938964844 0,27.263999938964844 C-15.057999610900879,27.263999938964844 -27.263999938964844,15.057999610900879 -27.263999938964844,0 C-27.263999938964844,-15.057999610900879 -15.057999610900879,-27.263999938964844 0,-27.263999938964844 C15.057999610900879,-27.263999938964844 27.263999938964844,-15.057999610900879 27.263999938964844,0z"/></g><g opacity="0.5" transform="matrix(1,0,0,1,97.5469970703125,353.7590026855469)"><path stroke="url(#__lottie_element_1564)" stroke-linecap="round" stroke-linejoin="round" fill-opacity="0" stroke-opacity="1" stroke-width="8" d=" M24.344999313354492,0 C24.344999313354492,12.923999786376953 13.444999694824219,23.400999069213867 0,23.400999069213867 C-13.444999694824219,23.400999069213867 -24.344999313354492,12.923999786376953 -24.344999313354492,0 C-24.344999313354492,-12.923999786376953 -13.444999694824219,-23.400999069213867 0,-23.400999069213867 C13.444999694824219,-23.400999069213867 24.344999313354492,-12.923999786376953 24.344999313354492,0z"/></g><g opacity="1" transform="matrix(1,0,0,1,97.5469970703125,349.8949890136719)"><path stroke="url(#__lottie_element_1565)" stroke-linecap="round" stroke-linejoin="round" fill-opacity="0" stroke-opacity="1" stroke-width="8" d=" M27.263999938964844,0 C27.263999938964844,15.057999610900879 15.057999610900879,27.263999938964844 0,27.263999938964844 C-15.057999610900879,27.263999938964844 -27.263999938964844,15.057999610900879 -27.263999938964844,0 C-27.263999938964844,-15.057999610900879 -15.057999610900879,-27.263999938964844 0,-27.263999938964844 C15.057999610900879,-27.263999938964844 27.263999938964844,-15.057999610900879 27.263999938964844,0z"/></g><g opacity="1" transform="matrix(1,0,0,1,98.20800018310547,347.5429992675781)"><path stroke-linecap="round" stroke-linejoin="round" fill-opacity="0" stroke="rgb(110,66,8)" stroke-opacity="1" stroke-width="12" d=" M-19.03589630126953,6.524710178375244 C-19.03589630126953,6.524710178375244 -19.072294235229492,6.194658279418945 -19.072294235229492,6.194658279418945"/></g><g opacity="1" transform="matrix(1,0,0,1,84.04199981689453,349.4440002441406)"><path stroke-linecap="round" stroke-linejoin="round" fill-opacity="0" stroke="rgb(110,66,8)" stroke-opacity="1" stroke-width="8" d=" M-8.2913179397583,4.496119022369385 C-8.2913179397583,4.496119022369385 1.0090237855911255,-7.100606918334961 21.814138412475586,-1.2608944177627563"/></g><g opacity="1" transform="matrix(1,0,0,1,98.20800018310547,347.5429992675781)"><path stroke-linecap="round" stroke-linejoin="round" fill-opacity="0" stroke="rgb(110,66,8)" stroke-opacity="1" stroke-width="12" d=" M8.481107711791992,-0.452997088432312 C8.481107711791992,-0.452997088432312 7.8746514320373535,2.1753292083740234 7.8746514320373535,2.1753292083740234"/></g></g></g></svg>