<svg xmlns="http://www.w3.org/2000/svg" xmlns:xlink="http://www.w3.org/1999/xlink" viewBox="0 0 512 512" width="512" height="512" style="width: 100%; height: 100%; transform: translate3d(0px, 0px, 0px); content-visibility: visible;" preserveAspectRatio="xMidYMid meet"><defs><clipPath id="__lottie_element_2"><rect width="512" height="512" x="0" y="0"/></clipPath><linearGradient id="__lottie_element_6" spreadMethod="pad" gradientUnits="userSpaceOnUse" x1="19" y1="4.5229997634887695" x2="-31.149999618530273" y2="-8.529000282287598"><stop offset="0%" stop-color="rgb(85,90,98)" style="--darkreader-inline-stopcolor: var(--darkreader-background-555a62, #42474a);" data-darkreader-inline-stopcolor=""/><stop offset="50%" stop-color="rgb(59,59,63)" style="--darkreader-inline-stopcolor: var(--darkreader-background-3b3b3f, #2c2f31);" data-darkreader-inline-stopcolor=""/><stop offset="100%" stop-color="rgb(33,28,28)" style="--darkreader-inline-stopcolor: var(--darkreader-background-211c1c, #161819);" data-darkreader-inline-stopcolor=""/></linearGradient><linearGradient id="__lottie_element_7" spreadMethod="pad" gradientUnits="userSpaceOnUse" x1="10.00100040435791" y1="19.89299964904785" x2="-7.202000141143799" y2="-14.234999656677246"><stop offset="0%" stop-color="rgb(68,102,130)" style="--darkreader-inline-stopcolor: var(--darkreader-background-446682, #334e63);" data-darkreader-inline-stopcolor=""/><stop offset="50%" stop-color="rgb(34,51,65)" style="--darkreader-inline-stopcolor: var(--darkreader-background-223341, #1a2731);" data-darkreader-inline-stopcolor=""/><stop offset="100%" stop-color="rgb(0,0,0)" style="--darkreader-inline-stopcolor: var(--darkreader-background-000000, #000000);" data-darkreader-inline-stopcolor=""/></linearGradient><linearGradient id="__lottie_element_8" spreadMethod="pad" gradientUnits="userSpaceOnUse" x1="-14" y1="48.5260009765625" x2="8.345000267028809" y2="-34.28099822998047"><stop offset="0%" stop-color="rgb(86,0,0)" style="--darkreader-inline-stopcolor: var(--darkreader-background-560000, #420000);" data-darkreader-inline-stopcolor=""/><stop offset="50%" stop-color="rgb(55,22,30)" style="--darkreader-inline-stopcolor: var(--darkreader-background-37161e, #2a1117);" data-darkreader-inline-stopcolor=""/><stop offset="100%" stop-color="rgb(24,44,60)" style="--darkreader-inline-stopcolor: var(--darkreader-background-182c3c, #12212e);" data-darkreader-inline-stopcolor=""/></linearGradient><linearGradient id="__lottie_element_9" spreadMethod="pad" gradientUnits="userSpaceOnUse" x1="-26" y1="-0.008999999612569809" x2="19.910999298095703" y2="-0.008999999612569809"><stop offset="0%" stop-color="rgb(64,68,70)" style="--darkreader-inline-stopcolor: var(--darkreader-background-404446, #2f3436);" data-darkreader-inline-stopcolor=""/><stop offset="8%" stop-color="rgb(32,34,35)" style="--darkreader-inline-stopcolor: var(--darkreader-background-202223, #181a1b);" data-darkreader-inline-stopcolor=""/><stop offset="16%" stop-color="rgb(0,0,0)" style="--darkreader-inline-stopcolor: var(--darkreader-background-000000, #000000);" data-darkreader-inline-stopcolor=""/><stop offset="21%" stop-color="rgb(26,26,26)" style="--darkreader-inline-stopcolor: var(--darkreader-background-1a1a1a, #131415);" data-darkreader-inline-stopcolor=""/><stop offset="27%" stop-color="rgb(51,51,51)" style="--darkreader-inline-stopcolor: var(--darkreader-background-333333, #242829);" data-darkreader-inline-stopcolor=""/><stop offset="40%" stop-color="rgb(128,128,128)" style="--darkreader-inline-stopcolor: var(--darkreader-background-808080, #5b6367);" data-darkreader-inline-stopcolor=""/><stop offset="53%" stop-color="rgb(204,204,204)" style="--darkreader-inline-stopcolor: var(--darkreader-background-cccccc, #323638);" data-darkreader-inline-stopcolor=""/><stop offset="57%" stop-color="rgb(102,102,102)" style="--darkreader-inline-stopcolor: var(--darkreader-background-666666, #494f52);" data-darkreader-inline-stopcolor=""/><stop offset="61%" stop-color="rgb(0,0,0)" style="--darkreader-inline-stopcolor: var(--darkreader-background-000000, #000000);" data-darkreader-inline-stopcolor=""/><stop offset="72%" stop-color="rgb(0,0,0)" style="--darkreader-inline-stopcolor: var(--darkreader-background-000000, #000000);" data-darkreader-inline-stopcolor=""/><stop offset="83%" stop-color="rgb(0,0,0)" style="--darkreader-inline-stopcolor: var(--darkreader-background-000000, #000000);" data-darkreader-inline-stopcolor=""/><stop offset="91%" stop-color="rgb(56,0,0)" style="--darkreader-inline-stopcolor: var(--darkreader-background-380000, #2b0000);" data-darkreader-inline-stopcolor=""/><stop offset="100%" stop-color="rgb(111,0,0)" style="--darkreader-inline-stopcolor: var(--darkreader-background-6f0000, #550000);" data-darkreader-inline-stopcolor=""/></linearGradient><linearGradient id="__lottie_element_10" spreadMethod="pad" gradientUnits="userSpaceOnUse" x1="-32" y1="-0.5820000171661377" x2="25.554000854492188" y2="-0.5820000171661377"><stop offset="0%" stop-color="rgb(66,66,66)" style="--darkreader-inline-stopcolor: var(--darkreader-background-424242, #2f3335);" data-darkreader-inline-stopcolor=""/><stop offset="12%" stop-color="rgb(89,84,84)" style="--darkreader-inline-stopcolor: var(--darkreader-background-595454, #3e4345);" data-darkreader-inline-stopcolor=""/><stop offset="25%" stop-color="rgb(112,103,103)" style="--darkreader-inline-stopcolor: var(--darkreader-background-706767, #4d5456);" data-darkreader-inline-stopcolor=""/><stop offset="36%" stop-color="rgb(119,114,114)" style="--darkreader-inline-stopcolor: var(--darkreader-background-777272, #545a5e);" data-darkreader-inline-stopcolor=""/><stop offset="48%" stop-color="rgb(126,126,126)" style="--darkreader-inline-stopcolor: var(--darkreader-background-7e7e7e, #5a6266);" data-darkreader-inline-stopcolor=""/><stop offset="50%" stop-color="rgb(63,63,63)" style="--darkreader-inline-stopcolor: var(--darkreader-background-3f3f3f, #2d3032);" data-darkreader-inline-stopcolor=""/><stop offset="52%" stop-color="rgb(0,0,0)" style="--darkreader-inline-stopcolor: var(--darkreader-background-000000, #000000);" data-darkreader-inline-stopcolor=""/><stop offset="76%" stop-color="rgb(46,0,0)" style="--darkreader-inline-stopcolor: var(--darkreader-background-2e0000, #230000);" data-darkreader-inline-stopcolor=""/><stop offset="100%" stop-color="rgb(93,0,0)" style="--darkreader-inline-stopcolor: var(--darkreader-background-5d0000, #460000);" data-darkreader-inline-stopcolor=""/></linearGradient><linearGradient id="__lottie_element_11" spreadMethod="pad" gradientUnits="userSpaceOnUse" x1="-33.005001068115234" y1="-0.4560000002384186" x2="31.9060001373291" y2="-0.4560000002384186"><stop offset="0%" stop-color="rgb(64,68,70)" style="--darkreader-inline-stopcolor: var(--darkreader-background-404446, #2f3436);" data-darkreader-inline-stopcolor=""/><stop offset="8%" stop-color="rgb(32,34,35)" style="--darkreader-inline-stopcolor: var(--darkreader-background-202223, #181a1b);" data-darkreader-inline-stopcolor=""/><stop offset="16%" stop-color="rgb(0,0,0)" style="--darkreader-inline-stopcolor: var(--darkreader-background-000000, #000000);" data-darkreader-inline-stopcolor=""/><stop offset="21%" stop-color="rgb(26,26,26)" style="--darkreader-inline-stopcolor: var(--darkreader-background-1a1a1a, #131415);" data-darkreader-inline-stopcolor=""/><stop offset="27%" stop-color="rgb(51,51,51)" style="--darkreader-inline-stopcolor: var(--darkreader-background-333333, #242829);" data-darkreader-inline-stopcolor=""/><stop offset="40%" stop-color="rgb(128,128,128)" style="--darkreader-inline-stopcolor: var(--darkreader-background-808080, #5b6367);" data-darkreader-inline-stopcolor=""/><stop offset="53%" stop-color="rgb(204,204,204)" style="--darkreader-inline-stopcolor: var(--darkreader-background-cccccc, #323638);" data-darkreader-inline-stopcolor=""/><stop offset="57%" stop-color="rgb(102,102,102)" style="--darkreader-inline-stopcolor: var(--darkreader-background-666666, #494f52);" data-darkreader-inline-stopcolor=""/><stop offset="61%" stop-color="rgb(0,0,0)" style="--darkreader-inline-stopcolor: var(--darkreader-background-000000, #000000);" data-darkreader-inline-stopcolor=""/><stop offset="72%" stop-color="rgb(0,0,0)" style="--darkreader-inline-stopcolor: var(--darkreader-background-000000, #000000);" data-darkreader-inline-stopcolor=""/><stop offset="83%" stop-color="rgb(0,0,0)" style="--darkreader-inline-stopcolor: var(--darkreader-background-000000, #000000);" data-darkreader-inline-stopcolor=""/><stop offset="91%" stop-color="rgb(56,0,0)" style="--darkreader-inline-stopcolor: var(--darkreader-background-380000, #2b0000);" data-darkreader-inline-stopcolor=""/><stop offset="100%" stop-color="rgb(111,0,0)" style="--darkreader-inline-stopcolor: var(--darkreader-background-6f0000, #550000);" data-darkreader-inline-stopcolor=""/></linearGradient><linearGradient id="__lottie_element_12" spreadMethod="pad" gradientUnits="userSpaceOnUse" x1="-36" y1="-0.8560000061988831" x2="34.518001556396484" y2="-0.8560000061988831"><stop offset="0%" stop-color="rgb(66,66,66)" style="--darkreader-inline-stopcolor: var(--darkreader-background-424242, #2f3335);" data-darkreader-inline-stopcolor=""/><stop offset="12%" stop-color="rgb(89,84,84)" style="--darkreader-inline-stopcolor: var(--darkreader-background-595454, #3e4345);" data-darkreader-inline-stopcolor=""/><stop offset="25%" stop-color="rgb(112,103,103)" style="--darkreader-inline-stopcolor: var(--darkreader-background-706767, #4d5456);" data-darkreader-inline-stopcolor=""/><stop offset="36%" stop-color="rgb(119,114,114)" style="--darkreader-inline-stopcolor: var(--darkreader-background-777272, #545a5e);" data-darkreader-inline-stopcolor=""/><stop offset="48%" stop-color="rgb(126,126,126)" style="--darkreader-inline-stopcolor: var(--darkreader-background-7e7e7e, #5a6266);" data-darkreader-inline-stopcolor=""/><stop offset="50%" stop-color="rgb(63,63,63)" style="--darkreader-inline-stopcolor: var(--darkreader-background-3f3f3f, #2d3032);" data-darkreader-inline-stopcolor=""/><stop offset="52%" stop-color="rgb(0,0,0)" style="--darkreader-inline-stopcolor: var(--darkreader-background-000000, #000000);" data-darkreader-inline-stopcolor=""/><stop offset="76%" stop-color="rgb(46,0,0)" style="--darkreader-inline-stopcolor: var(--darkreader-background-2e0000, #230000);" data-darkreader-inline-stopcolor=""/><stop offset="100%" stop-color="rgb(93,0,0)" style="--darkreader-inline-stopcolor: var(--darkreader-background-5d0000, #460000);" data-darkreader-inline-stopcolor=""/></linearGradient><linearGradient id="__lottie_element_13" spreadMethod="pad" gradientUnits="userSpaceOnUse" x1="-30" y1="-0.33799999952316284" x2="24.364999771118164" y2="-0.33799999952316284"><stop offset="0%" stop-color="rgb(66,66,66)" style="--darkreader-inline-stopcolor: var(--darkreader-background-424242, #2f3335);" data-darkreader-inline-stopcolor=""/><stop offset="12%" stop-color="rgb(89,84,84)" style="--darkreader-inline-stopcolor: var(--darkreader-background-595454, #3e4345);" data-darkreader-inline-stopcolor=""/><stop offset="25%" stop-color="rgb(112,103,103)" style="--darkreader-inline-stopcolor: var(--darkreader-background-706767, #4d5456);" data-darkreader-inline-stopcolor=""/><stop offset="36%" stop-color="rgb(119,114,114)" style="--darkreader-inline-stopcolor: var(--darkreader-background-777272, #545a5e);" data-darkreader-inline-stopcolor=""/><stop offset="48%" stop-color="rgb(126,126,126)" style="--darkreader-inline-stopcolor: var(--darkreader-background-7e7e7e, #5a6266);" data-darkreader-inline-stopcolor=""/><stop offset="50%" stop-color="rgb(63,63,63)" style="--darkreader-inline-stopcolor: var(--darkreader-background-3f3f3f, #2d3032);" data-darkreader-inline-stopcolor=""/><stop offset="52%" stop-color="rgb(0,0,0)" style="--darkreader-inline-stopcolor: var(--darkreader-background-000000, #000000);" data-darkreader-inline-stopcolor=""/><stop offset="76%" stop-color="rgb(46,0,0)" style="--darkreader-inline-stopcolor: var(--darkreader-background-2e0000, #230000);" data-darkreader-inline-stopcolor=""/><stop offset="100%" stop-color="rgb(93,0,0)" style="--darkreader-inline-stopcolor: var(--darkreader-background-5d0000, #460000);" data-darkreader-inline-stopcolor=""/></linearGradient></defs><g clip-path="url(#__lottie_element_2)"><g style="display: block;" transform="matrix(0.7071067690849304,0.7071067690849304,-0.7071067690849304,0.7071067690849304,256.0008544921875,-106.03851318359375)" opacity="1"><g opacity="1" transform="matrix(1,0,0,1,0,0)"><g opacity="0.25" transform="matrix(1,0,0,1,256,158.09300231933594)"><path fill="rgb(255,0,0)" fill-opacity="1" d=" M-54.73500061035156,121.95500183105469 C-54.73500061035156,121.95500183105469 -41.24599838256836,-156.46400451660156 -41.24599838256836,-156.46400451660156 C-40.4010009765625,-181.11599731445312 -22.72599983215332,-194.27099609375 -3.950000047683716,-195.89700317382812 C-1.3240000009536743,-196.12399291992188 1.3240000009536743,-196.12600708007812 3.950000047683716,-195.90199279785156 C22.72800064086914,-194.302001953125 40.404998779296875,-181.16700744628906 41.25199890136719,-156.46400451660156 C41.25199890136719,-156.46400451660156 54.74100112915039,121.95500183105469 54.74100112915039,121.95500183105469 C58.05500030517578,181.73699951171875 -58.042999267578125,181.6320037841797 -54.73500061035156,121.95500183105469z" style="--darkreader-inline-fill: var(--darkreader-background-ff0000, #c20000);" data-darkreader-inline-fill=""/></g><g opacity="0.4" transform="matrix(1,0,0,1,256,158.57000732421875)"><path fill="rgb(255,0,0)" fill-opacity="1" d=" M-47.893001556396484,118.36599731445312 C-47.893001556396484,118.36599731445312 -36.28900146484375,-154.1269989013672 -36.28900146484375,-154.1269989013672 C-35.61399841308594,-176.5500030517578 -20.325000762939453,-188.61399841308594 -3.950000047683716,-190.29100036621094 C-1.3259999752044678,-190.55999755859375 1.3259999752044678,-190.56199645996094 3.950000047683716,-190.2969970703125 C20.326000213623047,-188.6439971923828 35.61899948120117,-176.5970001220703 36.29499816894531,-154.1269989013672 C36.29499816894531,-154.1269989013672 47.89899826049805,118.36599731445312 47.89899826049805,118.36599731445312 C50.500999450683594,171.8470001220703 -50.492000579833984,171.78700256347656 -47.893001556396484,118.36599731445312z" style="--darkreader-inline-fill: var(--darkreader-background-ff0000, #c20000);" data-darkreader-inline-fill=""/></g><g opacity="0.55" transform="matrix(1,0,0,1,256,158.36399841308594)"><path fill="rgb(255,0,0)" fill-opacity="1" d=" M-41.09400177001953,115.48100280761719 C-41.09400177001953,115.48100280761719 -31.30900001525879,-151.0919952392578 -31.30900001525879,-151.0919952392578 C-30.788000106811523,-171.2270050048828 -17.899999618530273,-182.17799377441406 -3.950000047683716,-183.91900634765625 C-1.3289999961853027,-184.24600219726562 1.3289999961853027,-184.2480010986328 3.950000047683716,-183.9250030517578 C17.902000427246094,-182.2050018310547 30.79199981689453,-171.2689971923828 31.315000534057617,-151.0919952392578 C31.315000534057617,-151.0919952392578 41.099998474121094,115.48100280761719 41.099998474121094,115.48100280761719 C43.082000732421875,162.8090057373047 -43.07500076293945,162.79200744628906 -41.09400177001953,115.48100280761719z" style="--darkreader-inline-fill: var(--darkreader-background-ff0000, #c20000);" data-darkreader-inline-fill=""/></g><g opacity="0.7000000000000001" transform="matrix(1,0,0,1,256,158.1230010986328)"><path fill="rgb(255,0,0)" fill-opacity="1" d=" M-34.3380012512207,112.6500015258789 C-34.3380012512207,112.6500015258789 -26.30500030517578,-148.00999450683594 -26.30500030517578,-148.00999450683594 C-25.91900062561035,-165.7830047607422 -15.449999809265137,-175.59300231933594 -3.950000047683716,-177.41900634765625 C-1.3350000381469727,-177.83399963378906 1.3350000381469727,-177.83700561523438 3.950000047683716,-177.42599487304688 C15.45199966430664,-175.61900329589844 25.923999786376953,-165.82000732421875 26.31100082397461,-148.00999450683594 C26.31100082397461,-148.00999450683594 34.34400177001953,112.6500015258789 34.34400177001953,112.6500015258789 C35.79399871826172,153.96800231933594 -35.78900146484375,153.9929962158203 -34.3380012512207,112.6500015258789z" style="--darkreader-inline-fill: var(--darkreader-background-ff0000, #c20000);" data-darkreader-inline-fill=""/></g><g opacity="0.8" transform="matrix(1,0,0,1,256,158.54600524902344)"><path fill="rgb(255,121,0)" fill-opacity="1" d=" M-30.891000747680664,112.22599792480469 C-30.891000747680664,112.22599792480469 -23.663999557495117,-148.4340057373047 -23.663999557495117,-148.4340057373047 C-23.351999282836914,-164.41200256347656 -14.156000137329102,-173.31900024414062 -3.950000047683716,-175.13900756835938 C-1.3389999866485596,-175.60499572753906 1.3389999866485596,-175.6060028076172 3.950000047683716,-175.1439971923828 C14.157999992370605,-173.33700561523438 23.35700035095215,-164.43899536132812 23.670000076293945,-148.4340057373047 C23.670000076293945,-148.4340057373047 30.89699935913086,112.22599792480469 30.89699935913086,112.22599792480469 C32.064998626708984,149.2259979248047 -32.06100082397461,149.2830047607422 -30.891000747680664,112.22599792480469z" style="--darkreader-inline-fill: var(--darkreader-background-ff7900, #c25c00);" data-darkreader-inline-fill=""/></g><g opacity="0.9" transform="matrix(1,0,0,1,256,158.968994140625)"><path fill="rgb(255,157,0)" fill-opacity="1" d=" M-27.444000244140625,111.80400085449219 C-27.444000244140625,111.80400085449219 -21.02400016784668,-148.85699462890625 -21.02400016784668,-148.85699462890625 C-20.777999877929688,-163.0240020751953 -12.854000091552734,-171.01699829101562 -3.950000047683716,-172.8300018310547 C-1.3450000286102295,-173.36000061035156 1.3450000286102295,-173.36199951171875 3.950000047683716,-172.83399963378906 C12.857000350952148,-171.0290069580078 20.784000396728516,-163.0399932861328 21.030000686645508,-148.85699462890625 C21.030000686645508,-148.85699462890625 27.450000762939453,111.80400085449219 27.450000762939453,111.80400085449219 C28.368000030517578,144.52099609375 -28.36400032043457,144.61099243164062 -27.444000244140625,111.80400085449219z" style="--darkreader-inline-fill: var(--darkreader-background-ff9d00, #c27800);" data-darkreader-inline-fill=""/></g><g opacity="1" transform="matrix(1,0,0,1,256,159.39100646972656)"><path fill="rgb(255,169,0)" fill-opacity="1" d=" M-23.996999740600586,111.38200378417969 C-23.996999740600586,111.38200378417969 -18.382999420166016,-149.2779998779297 -18.382999420166016,-149.2779998779297 C-18.195999145507812,-161.61500549316406 -11.545000076293945,-168.68499755859375 -3.950000047683716,-170.48800659179688 C-1.3539999723434448,-171.10400390625 1.3539999723434448,-171.10499572753906 3.950000047683716,-170.49000549316406 C11.54800033569336,-168.6909942626953 18.20199966430664,-161.6199951171875 18.388999938964844,-149.2779998779297 C18.388999938964844,-149.2779998779297 24.003000259399414,111.38200378417969 24.003000259399414,111.38200378417969 C24.701000213623047,139.85299682617188 -24.697999954223633,139.9739990234375 -23.996999740600586,111.38200378417969z" style="--darkreader-inline-fill: var(--darkreader-background-ffa900, #c28000);" data-darkreader-inline-fill=""/></g><g opacity="1" transform="matrix(1,0,0,1,256,159.80299377441406)"><path fill="rgb(255,201,0)" fill-opacity="1" d=" M-20.549999237060547,110.96900177001953 C-20.549999237060547,110.96900177001953 -15.743000030517578,-149.6909942626953 -15.743000030517578,-149.6909942626953 C-15.607000350952148,-160.17799377441406 -10.22599983215332,-166.31500244140625 -3.950000047683716,-168.10499572753906 C-1.3669999837875366,-168.8419952392578 1.3669999837875366,-168.8419952392578 3.950000047683716,-168.1060028076172 C10.229000091552734,-166.31700134277344 15.61299991607666,-160.1790008544922 15.74899959564209,-149.6909942626953 C15.74899959564209,-149.6909942626953 20.555999755859375,110.96900177001953 20.555999755859375,110.96900177001953 C21.06599998474121,135.25799560546875 -21.062000274658203,135.343994140625 -20.549999237060547,110.96900177001953z" style="--darkreader-inline-fill: var(--darkreader-background-ffc900, #917300);" data-darkreader-inline-fill=""/></g><g opacity="1" transform="matrix(1,0,0,1,256,160.21499633789062)"><path fill="rgb(255,246,0)" fill-opacity="1" d=" M-17.10300064086914,110.55699920654297 C-17.10300064086914,110.55699920654297 -13.10200023651123,-150.10299682617188 -13.10200023651123,-150.10299682617188 C-13.008999824523926,-158.70700073242188 -8.892999649047852,-163.89100646972656 -3.950000047683716,-165.66000366210938 C-1.3910000324249268,-166.5760040283203 1.3910000324249268,-166.5749969482422 3.950000047683716,-165.66000366210938 C8.895999908447266,-163.89100646972656 13.015000343322754,-158.7050018310547 13.107999801635742,-150.10299682617188 C13.107999801635742,-150.10299682617188 17.108999252319336,110.55699920654297 17.108999252319336,110.55699920654297 C17.461000442504883,130.69900512695312 -17.45599937438965,130.74899291992188 -17.10300064086914,110.55699920654297z" style="--darkreader-inline-fill: var(--darkreader-background-fff600, #918d00);" data-darkreader-inline-fill=""/></g><g opacity="1" transform="matrix(1,0,0,1,256,160.62600708007812)"><path fill="rgb(255,255,255)" fill-opacity="1" d=" M-13.656000137329102,110.14700317382812 C-13.656000137329102,110.14700317382812 -10.461000442504883,-150.51400756835938 -10.461000442504883,-150.51400756835938 C-10.402999877929688,-157.18499755859375 -7.540999889373779,-161.38299560546875 -3.950000047683716,-163.11099243164062 C-1.4359999895095825,-164.3209991455078 1.434999942779541,-164.32000732421875 3.950000047683716,-163.11000061035156 C7.544000148773193,-161.3800048828125 10.409000396728516,-157.18099975585938 10.467000007629395,-150.51400756835938 C10.467000007629395,-150.51400756835938 13.661999702453613,110.14700317382812 13.661999702453613,110.14700317382812 C13.88599967956543,126.1760025024414 -13.880000114440918,126.19100189208984 -13.656000137329102,110.14700317382812z" style="--darkreader-inline-fill: var(--darkreader-background-ffffff, #17191a);" data-darkreader-inline-fill=""/></g></g><g opacity="1" transform="matrix(1,0,0,1,0,0)"><g opacity="1" transform="matrix(1,0,0,1,256,536.4769897460938)"><path fill="url(#__lottie_element_6)" fill-opacity="1" d=" M44.159000396728516,-21.76300048828125 C46.231998443603516,24.253999710083008 -46.316001892089844,26.239999771118164 -44.15299987792969,-21.76300048828125 C-42.18299865722656,-65.48200225830078 42.263999938964844,-63.82899856567383 44.159000396728516,-21.76300048828125z"/><path stroke-linecap="round" stroke-linejoin="round" fill-opacity="0" stroke="rgb(0,0,0)" stroke-opacity="1" stroke-width="6" d=" M44.159000396728516,-21.76300048828125 C46.231998443603516,24.253999710083008 -46.316001892089844,26.239999771118164 -44.15299987792969,-21.76300048828125 C-42.18299865722656,-65.48200225830078 42.263999938964844,-63.82899856567383 44.159000396728516,-21.76300048828125z" style="--darkreader-inline-stroke: var(--darkreader-text-000000, #dcdbd8);" data-darkreader-inline-stroke=""/></g><g opacity="1" transform="matrix(1,0,0,1,255.99899291992188,537.1069946289062)"><path fill="url(#__lottie_element_7)" fill-opacity="1" d=" M26.33099937438965,-21.768999099731445 C27.566999435424805,5.668000221252441 -27.614999771118164,6.8520002365112305 -26.325000762939453,-21.768999099731445 C-25.149999618530273,-47.83599853515625 25.201000213623047,-46.849998474121094 26.33099937438965,-21.768999099731445z"/><path stroke-linecap="round" stroke-linejoin="round" fill-opacity="0" stroke="rgb(0,0,0)" stroke-opacity="1" stroke-width="6" d=" M26.33099937438965,-21.768999099731445 C27.566999435424805,5.668000221252441 -27.614999771118164,6.8520002365112305 -26.325000762939453,-21.768999099731445 C-25.149999618530273,-47.83599853515625 25.201000213623047,-46.849998474121094 26.33099937438965,-21.768999099731445z" style="--darkreader-inline-stroke: var(--darkreader-text-000000, #dcdbd8);" data-darkreader-inline-stroke=""/></g><g opacity="1" transform="matrix(1,0,0,1,256,340.4739990234375)"><path fill="url(#__lottie_element_8)" fill-opacity="1" d=" M56.17100143432617,-24.231000900268555 C59.500999450683594,35.5890007019043 -59.63999938964844,38.20199966430664 -56.165000915527344,-24.231000900268555 C-53.073001861572266,-79.78900146484375 53.194000244140625,-77.70999908447266 56.17100143432617,-24.231000900268555z"/><path stroke-linecap="round" stroke-linejoin="round" fill-opacity="0" stroke="rgb(0,0,0)" stroke-opacity="1" stroke-width="6" d=" M56.17100143432617,-24.231000900268555 C59.500999450683594,35.5890007019043 -59.63999938964844,38.20199966430664 -56.165000915527344,-24.231000900268555 C-53.073001861572266,-79.78900146484375 53.194000244140625,-77.70999908447266 56.17100143432617,-24.231000900268555z" style="--darkreader-inline-stroke: var(--darkreader-text-000000, #dcdbd8);" data-darkreader-inline-stroke=""/></g><g opacity="1" transform="matrix(1,0,0,1,236.6909942626953,332.0169982910156)"><path stroke-linecap="round" stroke-linejoin="round" fill-opacity="0" stroke="rgb(97,0,0)" stroke-opacity="1" stroke-width="6" d=" M-26.207000732421875,13.923999786376953 C-33.3489990234375,6.579999923706055 -37.55099868774414,-3.2980000972747803 -36.856998443603516,-15.77400016784668 C-35.097999572753906,-47.37799835205078 0.04699999839067459,-60.33100128173828 30.573999404907227,-55.78200149536133" style="--darkreader-inline-stroke: var(--darkreader-text-610000, #bfbbb5);" data-darkreader-inline-stroke=""/></g><g opacity="1" transform="matrix(1,0,0,1,256,401.0090026855469)"><path fill="url(#__lottie_element_9)" fill-opacity="1" d=" M32.150001525878906,-1.2489999532699585 C32.150001525878906,-1.2489999532699585 -32.14400100708008,-1.2489999532699585 -32.14400100708008,-1.2489999532699585 C-32.14400100708008,-1.2489999532699585 -30.48900032043457,-57.49700164794922 -30.48900032043457,-57.49700164794922 C-30.48900032043457,-57.49700164794922 30.4950008392334,-57.49700164794922 30.4950008392334,-57.49700164794922 C30.4950008392334,-57.49700164794922 32.150001525878906,-1.2489999532699585 32.150001525878906,-1.2489999532699585z"/><path stroke-linecap="round" stroke-linejoin="round" fill-opacity="0" stroke="rgb(0,0,0)" stroke-opacity="1" stroke-width="6" d=" M32.150001525878906,-1.2489999532699585 C32.150001525878906,-1.2489999532699585 -32.14400100708008,-1.2489999532699585 -32.14400100708008,-1.2489999532699585 C-32.14400100708008,-1.2489999532699585 -30.48900032043457,-57.49700164794922 -30.48900032043457,-57.49700164794922 C-30.48900032043457,-57.49700164794922 30.4950008392334,-57.49700164794922 30.4950008392334,-57.49700164794922 C30.4950008392334,-57.49700164794922 32.150001525878906,-1.2489999532699585 32.150001525878906,-1.2489999532699585z" style="--darkreader-inline-stroke: var(--darkreader-text-000000, #dcdbd8);" data-darkreader-inline-stroke=""/></g><g opacity="1" transform="matrix(1,0,0,1,256,478.5820007324219)"><path fill="url(#__lottie_element_10)" fill-opacity="1" d=" M44.15399932861328,33.724998474121094 C42.698001861572266,-6.076000213623047 -42.69200134277344,-6.076000213623047 -44.14799880981445,33.724998474121094 C-44.14799880981445,33.724998474121094 -41,-52.332000732421875 -41,-52.332000732421875 C-39.35200119018555,-97.39299774169922 39.358001708984375,-97.39299774169922 41.00600051879883,-52.332000732421875 C41.00600051879883,-52.332000732421875 44.15399932861328,33.724998474121094 44.15399932861328,33.724998474121094z"/><path stroke-linecap="round" stroke-linejoin="round" fill-opacity="0" stroke="rgb(0,0,0)" stroke-opacity="1" stroke-width="6" d=" M44.15399932861328,33.724998474121094 C42.698001861572266,-6.076000213623047 -42.69200134277344,-6.076000213623047 -44.14799880981445,33.724998474121094 C-44.14799880981445,33.724998474121094 -41,-52.332000732421875 -41,-52.332000732421875 C-39.35200119018555,-97.39299774169922 39.358001708984375,-97.39299774169922 41.00600051879883,-52.332000732421875 C41.00600051879883,-52.332000732421875 44.15399932861328,33.724998474121094 44.15399932861328,33.724998474121094z" style="--darkreader-inline-stroke: var(--darkreader-text-000000, #dcdbd8);" data-darkreader-inline-stroke=""/></g><g opacity="1" transform="matrix(1,0,0,1,256.0050048828125,513.4559936523438)"><g opacity="1" transform="matrix(1,0,0,1,0,0)"><path fill="url(#__lottie_element_11)" fill-opacity="1" d=" M43.34400177001953,-21.15999984741211 C41.777000427246094,-60.26900100708008 -41.792999267578125,-60.207000732421875 -43.3390007019043,-21.15999984741211 C-43.3390007019043,-21.15999984741211 -44.15399932861328,1.468999981880188 -44.15399932861328,1.468999981880188 C-42.15800094604492,-41.17399978637695 43.0260009765625,-41.540000915527344 44.15399932861328,0.9739999771118164 C44.15399932861328,0.9739999771118164 43.34400177001953,-21.15999984741211 43.34400177001953,-21.15999984741211z"/><path stroke-linecap="round" stroke-linejoin="round" fill-opacity="0" stroke="rgb(0,0,0)" stroke-opacity="1" stroke-width="6" d=" M43.34400177001953,-21.15999984741211 C41.777000427246094,-60.26900100708008 -41.792999267578125,-60.207000732421875 -43.3390007019043,-21.15999984741211 C-43.3390007019043,-21.15999984741211 -44.15399932861328,1.468999981880188 -44.15399932861328,1.468999981880188 C-42.15800094604492,-41.17399978637695 43.0260009765625,-41.540000915527344 44.15399932861328,0.9739999771118164 C44.15399932861328,0.9739999771118164 43.34400177001953,-21.15999984741211 43.34400177001953,-21.15999984741211z" style="--darkreader-inline-stroke: var(--darkreader-text-000000, #dcdbd8);" data-darkreader-inline-stroke=""/></g></g><g opacity="1" transform="matrix(1,0,0,1,0,0)"><g opacity="1" transform="matrix(1,0,0,1,230.2729949951172,490.95098876953125)"><path stroke-linecap="round" stroke-linejoin="round" fill-opacity="0" stroke="rgb(97,0,0)" stroke-opacity="1" stroke-width="6" d=" M0.7689999938011169,-23.3439998626709 C-11.909000396728516,-17.5939998626709 -16.825000762939453,-7.793000221252441 -17.549999237060547,-0.5720000267028809 C-16.96500015258789,-16.56999969482422 -15.49899959564209,-54.604000091552734 -15.49899959564209,-54.604000091552734" style="--darkreader-inline-stroke: var(--darkreader-text-610000, #bfbbb5);" data-darkreader-inline-stroke=""/></g></g><g opacity="1" transform="matrix(1,0,0,1,256,442.8559875488281)"><path fill="url(#__lottie_element_12)" fill-opacity="1" d=" M45.72200012207031,11.026000022888184 C43.61800003051758,-40.09000015258789 -43.61199951171875,-40.09000015258789 -45.715999603271484,11.026000022888184 C-45.715999603271484,11.026000022888184 -43.84400177001953,-34.44900131225586 -43.84400177001953,-34.44900131225586 C-41.904998779296875,-81.55500030517578 41.9109992980957,-81.55500030517578 43.849998474121094,-34.44900131225586 C43.849998474121094,-34.44900131225586 45.72200012207031,11.026000022888184 45.72200012207031,11.026000022888184z"/><path stroke-linecap="round" stroke-linejoin="round" fill-opacity="0" stroke="rgb(0,0,0)" stroke-opacity="1" stroke-width="6" d=" M45.72200012207031,11.026000022888184 C43.61800003051758,-40.09000015258789 -43.61199951171875,-40.09000015258789 -45.715999603271484,11.026000022888184 C-45.715999603271484,11.026000022888184 -43.84400177001953,-34.44900131225586 -43.84400177001953,-34.44900131225586 C-41.904998779296875,-81.55500030517578 41.9109992980957,-81.55500030517578 43.849998474121094,-34.44900131225586 C43.849998474121094,-34.44900131225586 45.72200012207031,11.026000022888184 45.72200012207031,11.026000022888184z" style="--darkreader-inline-stroke: var(--darkreader-text-000000, #dcdbd8);" data-darkreader-inline-stroke=""/></g><g opacity="1" transform="matrix(1,0,0,1,232.27499389648438,443.87701416015625)"><path stroke-linecap="round" stroke-linejoin="round" fill-opacity="0" stroke="rgb(97,0,0)" stroke-opacity="1" stroke-width="6" d=" M-21.990999221801758,10.005999565124512 C-21.990999221801758,10.005999565124512 -20.118999481201172,-35.46900177001953 -20.118999481201172,-35.46900177001953 C-18.750999450683594,-61.21900177001953 5.0289998054504395,-67.9489974975586 8.930999755859375,-68.85700225830078" style="--darkreader-inline-stroke: var(--darkreader-text-610000, #bfbbb5);" data-darkreader-inline-stroke=""/></g><g opacity="1" transform="matrix(1,0,0,1,233.86900329589844,464.9739990234375)"><path stroke-linecap="round" stroke-linejoin="round" fill-opacity="0" stroke="rgb(97,0,0)" stroke-opacity="1" stroke-width="6" d=" M10.812000274658203,-48.3120002746582 C-9.357999801635742,-44.77299880981445 -23.118999481201172,-29.90399932861328 -23.586000442504883,-11.090999603271484" style="--darkreader-inline-stroke: var(--darkreader-text-610000, #bfbbb5);" data-darkreader-inline-stroke=""/></g><g opacity="1" transform="matrix(1,0,0,1,0,0)"><g opacity="1" transform="matrix(1,0,0,1,256,359.3380126953125)"><path fill="url(#__lottie_element_13)" fill-opacity="1" d=" M37.19900131225586,13.486000061035156 C35.84000015258789,-25.434999465942383 -35.834999084472656,-25.434999465942383 -37.19300079345703,13.486000061035156 C-37.19300079345703,13.486000061035156 -35.43299865722656,-36.94900131225586 -35.43299865722656,-36.94900131225586 C-34.19499969482422,-72.41000366210938 34.20100021362305,-72.41000366210938 35.43899917602539,-36.94900131225586 C35.43899917602539,-36.94900131225586 37.19900131225586,13.486000061035156 37.19900131225586,13.486000061035156z"/><path stroke-linecap="round" stroke-linejoin="round" fill-opacity="0" stroke="rgb(0,0,0)" stroke-opacity="1" stroke-width="6" d=" M37.19900131225586,13.486000061035156 C35.84000015258789,-25.434999465942383 -35.834999084472656,-25.434999465942383 -37.19300079345703,13.486000061035156 C-37.19300079345703,13.486000061035156 -35.43299865722656,-36.94900131225586 -35.43299865722656,-36.94900131225586 C-34.19499969482422,-72.41000366210938 34.20100021362305,-72.41000366210938 35.43899917602539,-36.94900131225586 C35.43899917602539,-36.94900131225586 37.19900131225586,13.486000061035156 37.19900131225586,13.486000061035156z" style="--darkreader-inline-stroke: var(--darkreader-text-000000, #dcdbd8);" data-darkreader-inline-stroke=""/></g><g opacity="1" transform="matrix(1,0,0,1,256,375.739990234375)"><path stroke-linecap="round" stroke-linejoin="round" fill-opacity="0" stroke="rgb(0,0,0)" stroke-opacity="1" stroke-width="4" d=" M36.80099868774414,-14.333000183105469 C35.5359992980957,-50.5629997253418 -35.529998779296875,-50.5629997253418 -36.79399871826172,-14.333000183105469" style="--darkreader-inline-stroke: var(--darkreader-text-000000, #dcdbd8);" data-darkreader-inline-stroke=""/></g><g opacity="1" transform="matrix(1,0,0,1,256,366.97698974609375)"><path stroke-linecap="round" stroke-linejoin="round" fill-opacity="0" stroke="rgb(0,0,0)" stroke-opacity="1" stroke-width="4" d=" M36.518001556396484,-13.675000190734863 C35.27199935913086,-49.35900115966797 -35.266998291015625,-49.35900115966797 -36.512001037597656,-13.675000190734863" style="--darkreader-inline-stroke: var(--darkreader-text-000000, #dcdbd8);" data-darkreader-inline-stroke=""/></g><g opacity="1" transform="matrix(1,0,0,1,256,358.6520080566406)"><path stroke-linecap="round" stroke-linejoin="round" fill-opacity="0" stroke="rgb(0,0,0)" stroke-opacity="1" stroke-width="4" d=" M36.25299835205078,-12.944000244140625 C35.025001525878906,-48.12099838256836 -35.018001556396484,-48.12099838256836 -36.24599838256836,-12.944000244140625" style="--darkreader-inline-stroke: var(--darkreader-text-000000, #dcdbd8);" data-darkreader-inline-stroke=""/></g><g opacity="1" transform="matrix(1,0,0,1,256,349.9079895019531)"><path stroke-linecap="round" stroke-linejoin="round" fill-opacity="0" stroke="rgb(0,0,0)" stroke-opacity="1" stroke-width="4" d=" M35.97800064086914,-12.067999839782715 C34.768001556396484,-46.722999572753906 -34.76300048828125,-46.722999572753906 -35.97200012207031,-12.067999839782715" style="--darkreader-inline-stroke: var(--darkreader-text-000000, #dcdbd8);" data-darkreader-inline-stroke=""/></g></g></g></g></g></svg>