<svg xmlns="http://www.w3.org/2000/svg" xmlns:xlink="http://www.w3.org/1999/xlink" viewBox="0 0 512 512" width="512" height="512" style="width: 100%; height: 100%; transform: translate3d(0px, 0px, 0px); content-visibility: visible;" preserveAspectRatio="xMidYMid meet"><defs><clipPath id="__lottie_element_2554"><rect width="512" height="512" x="0" y="0"/></clipPath><radialGradient id="__lottie_element_2558" spreadMethod="pad" gradientUnits="userSpaceOnUse" cx="29.125999450683594" cy="0.11800000071525574" r="229.21549248331485" fx="29.125999450683594" fy="0.11800000071525574"><stop offset="0%" stop-color="rgb(127,107,123)" stop-opacity="1"/><stop offset="50%" stop-color="rgb(127,107,123)" stop-opacity="0.5"/><stop offset="100%" stop-color="rgb(127,107,123)" stop-opacity="0"/></radialGradient><linearGradient id="__lottie_element_2567" spreadMethod="pad" gradientUnits="userSpaceOnUse" x1="-0.4490000009536743" y1="-81.07599639892578" x2="-5.52400016784668" y2="130.8000030517578"><stop offset="38%" stop-color="rgb(255,255,255)"/><stop offset="54%" stop-color="rgb(244,244,245)"/><stop offset="70%" stop-color="rgb(233,233,235)"/></linearGradient><linearGradient id="__lottie_element_2571" spreadMethod="pad" gradientUnits="userSpaceOnUse" x1="-0.6320000290870667" y1="-4.639999866485596" x2="0.421999990940094" y2="4.263999938964844"><stop offset="0%" stop-color="rgb(255,255,255)" stop-opacity="1"/><stop offset="50%" stop-color="rgb(255,255,255)" stop-opacity="0.5"/><stop offset="100%" stop-color="rgb(255,255,255)" stop-opacity="0"/></linearGradient><linearGradient id="__lottie_element_2572" spreadMethod="pad" gradientUnits="userSpaceOnUse" x1="0.5899999737739563" y1="-7.586999893188477" x2="0.02500000037252903" y2="8.118000030517578"><stop offset="0%" stop-color="rgb(255,255,255)" stop-opacity="1"/><stop offset="50%" stop-color="rgb(255,255,255)" stop-opacity="0.5"/><stop offset="100%" stop-color="rgb(255,255,255)" stop-opacity="0"/></linearGradient><linearGradient id="__lottie_element_2573" spreadMethod="pad" gradientUnits="userSpaceOnUse" x1="-0.5699999928474426" y1="-4.65500020980835" x2="0.7760000228881836" y2="5.349999904632568"><stop offset="0%" stop-color="rgb(255,255,255)" stop-opacity="1"/><stop offset="50%" stop-color="rgb(255,255,255)" stop-opacity="0.5"/><stop offset="100%" stop-color="rgb(255,255,255)" stop-opacity="0"/></linearGradient><linearGradient id="__lottie_element_2574" spreadMethod="pad" gradientUnits="userSpaceOnUse" x1="-0.6930000185966492" y1="-4.579999923706055" x2="1.159000039100647" y2="5.320000171661377"><stop offset="0%" stop-color="rgb(255,255,255)" stop-opacity="1"/><stop offset="50%" stop-color="rgb(255,255,255)" stop-opacity="0.5"/><stop offset="100%" stop-color="rgb(255,255,255)" stop-opacity="0"/></linearGradient><linearGradient id="__lottie_element_2575" spreadMethod="pad" gradientUnits="userSpaceOnUse" x1="3.2360000610351562" y1="-4.298999786376953" x2="-1.774999976158142" y2="4.360000133514404"><stop offset="0%" stop-color="rgb(255,255,255)" stop-opacity="1"/><stop offset="50%" stop-color="rgb(255,255,255)" stop-opacity="0.5"/><stop offset="100%" stop-color="rgb(255,255,255)" stop-opacity="0"/></linearGradient><linearGradient id="__lottie_element_2576" spreadMethod="pad" gradientUnits="userSpaceOnUse" x1="-0.5619999766349792" y1="-4.39900016784668" x2="-0.46700000762939453" y2="5.46999979019165"><stop offset="0%" stop-color="rgb(255,255,255)" stop-opacity="1"/><stop offset="50%" stop-color="rgb(255,255,255)" stop-opacity="0.5"/><stop offset="100%" stop-color="rgb(255,255,255)" stop-opacity="0"/></linearGradient><linearGradient id="__lottie_element_2577" spreadMethod="pad" gradientUnits="userSpaceOnUse" x1="-2.4059998989105225" y1="-7.410999774932861" x2="1.409999966621399" y2="9.270000457763672"><stop offset="0%" stop-color="rgb(255,255,255)" stop-opacity="1"/><stop offset="50%" stop-color="rgb(255,255,255)" stop-opacity="0.5"/><stop offset="100%" stop-color="rgb(255,255,255)" stop-opacity="0"/></linearGradient><linearGradient id="__lottie_element_2581" spreadMethod="pad" gradientUnits="userSpaceOnUse" x1="-1.5429999828338623" y1="-8.378999710083008" x2="0.1979999989271164" y2="7.008999824523926"><stop offset="0%" stop-color="rgb(255,255,255)" stop-opacity="1"/><stop offset="50%" stop-color="rgb(255,255,255)" stop-opacity="0.5"/><stop offset="100%" stop-color="rgb(255,255,255)" stop-opacity="0"/></linearGradient><linearGradient id="__lottie_element_2585" spreadMethod="pad" gradientUnits="userSpaceOnUse" x1="-0.9440000057220459" y1="-4.4019999504089355" x2="0.36000001430511475" y2="5.002999782562256"><stop offset="0%" stop-color="rgb(255,255,255)" stop-opacity="1"/><stop offset="50%" stop-color="rgb(255,255,255)" stop-opacity="0.5"/><stop offset="100%" stop-color="rgb(255,255,255)" stop-opacity="0"/></linearGradient><linearGradient id="__lottie_element_2586" spreadMethod="pad" gradientUnits="userSpaceOnUse" x1="-1.7109999656677246" y1="-4.520999908447266" x2="0.8429999947547913" y2="5.132999897003174"><stop offset="0%" stop-color="rgb(255,255,255)" stop-opacity="1"/><stop offset="50%" stop-color="rgb(255,255,255)" stop-opacity="0.5"/><stop offset="100%" stop-color="rgb(255,255,255)" stop-opacity="0"/></linearGradient><linearGradient id="__lottie_element_2587" spreadMethod="pad" gradientUnits="userSpaceOnUse" x1="-2.9560000896453857" y1="-8.8100004196167" x2="0.8830000162124634" y2="7.71999979019165"><stop offset="0%" stop-color="rgb(255,255,255)" stop-opacity="1"/><stop offset="50%" stop-color="rgb(255,255,255)" stop-opacity="0.5"/><stop offset="100%" stop-color="rgb(255,255,255)" stop-opacity="0"/></linearGradient><linearGradient id="__lottie_element_2591" spreadMethod="pad" gradientUnits="userSpaceOnUse" x1="-0.4050000011920929" y1="-4.451000213623047" x2="0.28700000047683716" y2="5.061999797821045"><stop offset="0%" stop-color="rgb(255,255,255)" stop-opacity="1"/><stop offset="50%" stop-color="rgb(255,255,255)" stop-opacity="0.5"/><stop offset="100%" stop-color="rgb(255,255,255)" stop-opacity="0"/></linearGradient><linearGradient id="__lottie_element_2592" spreadMethod="pad" gradientUnits="userSpaceOnUse" x1="2.744999885559082" y1="-6.479000091552734" x2="-3.3010001182556152" y2="7.181000232696533"><stop offset="0%" stop-color="rgb(255,255,255)" stop-opacity="1"/><stop offset="50%" stop-color="rgb(255,255,255)" stop-opacity="0.5"/><stop offset="100%" stop-color="rgb(255,255,255)" stop-opacity="0"/></linearGradient><linearGradient id="__lottie_element_2596" spreadMethod="pad" gradientUnits="userSpaceOnUse" x1="1.8480000495910645" y1="-4.718999862670898" x2="-1.2949999570846558" y2="5.290999889373779"><stop offset="0%" stop-color="rgb(255,255,255)" stop-opacity="1"/><stop offset="50%" stop-color="rgb(255,255,255)" stop-opacity="0.5"/><stop offset="100%" stop-color="rgb(255,255,255)" stop-opacity="0"/></linearGradient><linearGradient id="__lottie_element_2597" spreadMethod="pad" gradientUnits="userSpaceOnUse" x1="1.031000018119812" y1="-7.831999778747559" x2="-4.638000011444092" y2="7.6519999504089355"><stop offset="0%" stop-color="rgb(255,255,255)" stop-opacity="1"/><stop offset="50%" stop-color="rgb(255,255,255)" stop-opacity="0.5"/><stop offset="100%" stop-color="rgb(255,255,255)" stop-opacity="0"/></linearGradient><linearGradient id="__lottie_element_2601" spreadMethod="pad" gradientUnits="userSpaceOnUse" x1="-0.39399999380111694" y1="-4.7170000076293945" x2="1.0579999685287476" y2="4.422999858856201"><stop offset="0%" stop-color="rgb(255,255,255)" stop-opacity="1"/><stop offset="50%" stop-color="rgb(255,255,255)" stop-opacity="0.5"/><stop offset="100%" stop-color="rgb(255,255,255)" stop-opacity="0"/></linearGradient><linearGradient id="__lottie_element_2602" spreadMethod="pad" gradientUnits="userSpaceOnUse" x1="-3.364000082015991" y1="-11.065999984741211" x2="1.4509999752044678" y2="9.612000465393066"><stop offset="0%" stop-color="rgb(255,255,255)" stop-opacity="1"/><stop offset="50%" stop-color="rgb(255,255,255)" stop-opacity="0.5"/><stop offset="100%" stop-color="rgb(255,255,255)" stop-opacity="0"/></linearGradient><linearGradient id="__lottie_element_2606" spreadMethod="pad" gradientUnits="userSpaceOnUse" x1="-1.2960000038146973" y1="-7.360000133514404" x2="0.37599998712539673" y2="8.062000274658203"><stop offset="0%" stop-color="rgb(255,255,255)" stop-opacity="1"/><stop offset="50%" stop-color="rgb(255,255,255)" stop-opacity="0.5"/><stop offset="100%" stop-color="rgb(255,255,255)" stop-opacity="0"/></linearGradient><linearGradient id="__lottie_element_2607" spreadMethod="pad" gradientUnits="userSpaceOnUse" x1="-0.4440000057220459" y1="-5.916999816894531" x2="-1.2929999828338623" y2="6.252999782562256"><stop offset="0%" stop-color="rgb(255,255,255)" stop-opacity="1"/><stop offset="50%" stop-color="rgb(255,255,255)" stop-opacity="0.5"/><stop offset="100%" stop-color="rgb(255,255,255)" stop-opacity="0"/></linearGradient><linearGradient id="__lottie_element_2611" spreadMethod="pad" gradientUnits="userSpaceOnUse" x1="-3.0920000076293945" y1="-8.831000328063965" x2="1.8930000066757202" y2="8.805999755859375"><stop offset="0%" stop-color="rgb(255,255,255)" stop-opacity="1"/><stop offset="50%" stop-color="rgb(255,255,255)" stop-opacity="0.5"/><stop offset="100%" stop-color="rgb(255,255,255)" stop-opacity="0"/></linearGradient><linearGradient id="__lottie_element_2612" spreadMethod="pad" gradientUnits="userSpaceOnUse" x1="-3.6619999408721924" y1="-7.732999801635742" x2="1.6009999513626099" y2="7.531000137329102"><stop offset="0%" stop-color="rgb(255,255,255)" stop-opacity="1"/><stop offset="50%" stop-color="rgb(255,255,255)" stop-opacity="0.5"/><stop offset="100%" stop-color="rgb(255,255,255)" stop-opacity="0"/></linearGradient><linearGradient id="__lottie_element_2613" spreadMethod="pad" gradientUnits="userSpaceOnUse" x1="-2.2709999084472656" y1="-6.301000118255615" x2="1.2790000438690186" y2="5.514999866485596"><stop offset="0%" stop-color="rgb(255,255,255)" stop-opacity="1"/><stop offset="50%" stop-color="rgb(255,255,255)" stop-opacity="0.5"/><stop offset="100%" stop-color="rgb(255,255,255)" stop-opacity="0"/></linearGradient><radialGradient id="__lottie_element_2620" spreadMethod="pad" gradientUnits="userSpaceOnUse" cx="0.007000000216066837" cy="3.7799999713897705" r="86.08107146408635" fx="0.007000000216066837" fy="3.7799999713897705"><stop offset="0%" stop-color="rgb(255,255,255)" stop-opacity="1"/><stop offset="50%" stop-color="rgb(255,255,255)" stop-opacity="0.5"/><stop offset="100%" stop-color="rgb(255,255,255)" stop-opacity="0"/></radialGradient></defs><g clip-path="url(#__lottie_element_2554)"><g style="display: block;" transform="matrix(1,0,0,0.11999999731779099,247.22799682617188,484.1919860839844)" opacity="0.5"><g opacity="1" transform="matrix(1,0,0,1,0,0)"><path fill="url(#__lottie_element_2558)" fill-opacity="1" d=" M226.17599487304688,0 C226.17599487304688,123.60600280761719 124.91400146484375,223.80799865722656 0,223.80799865722656 C-124.91400146484375,223.80799865722656 -226.17599487304688,123.60600280761719 -226.17599487304688,0 C-226.17599487304688,-123.60600280761719 -124.91400146484375,-223.80799865722656 0,-223.80799865722656 C124.91400146484375,-223.80799865722656 226.17599487304688,-123.60600280761719 226.17599487304688,0z"/></g></g><g style="display: block;" transform="matrix(0.901749312877655,0,0,0.8982506990432739,13.93818473815918,28.115182876586914)" opacity="1"><g opacity="1" transform="matrix(1,0,0,1,297.5299987792969,272.0889892578125)"><path fill="rgb(89,89,89)" fill-opacity="1" d=" M-191.2184295654297,-252.3306121826172 C-164.7689208984375,-268.62933349609375 -132.0593719482422,-267.3387756347656 -116.71746826171875,-258.8650817871094 C-101.37555694580078,-250.39137268066406 -86.85293579101562,-233.02488708496094 -86.85293579101562,-233.02488708496094 C-86.85293579101562,-233.02488708496094 -26.174640655517578,-265.7165832519531 -7.141844749450684,-184.2802734375 C-7.141844749450684,-184.2802734375 52.334712982177734,-189.9440460205078 59.71585464477539,-128.14227294921875 C59.71585464477539,-128.14227294921875 104.13080596923828,-139.68167114257812 117.4090347290039,-94.84716796875 C117.4090347290039,-94.84716796875 165.75399780273438,-98.13500213623047 195.47799682617188,-64.69200134277344 C225.20199584960938,-31.249000549316406 171.91799926757812,24.108427047729492 171.91799926757812,24.108427047729492 C171.91799926757812,24.108427047729492 210.2030029296875,36.694000244140625 212.1999969482422,54.71900177001953 C214.19700622558594,72.74400329589844 173.78399658203125,164.25999450683594 134.1439971923828,171.0500030517578 C126.49800109863281,172.36000061035156 74.40299987792969,161.28907775878906 -23.92300033569336,171.12208557128906 C-59.21900177001953,174.65208435058594 -104.34793090820312,166.23037719726562 -167.9229278564453,181.15338134765625 C-200.10592651367188,188.70838928222656 -224.44692993164062,166.15130615234375 -233.0519256591797,117.36930084228516 C-241.05593872070312,71.99830627441406 -240.4771270751953,23.958415985107422 -239.28211975097656,23.905414581298828 C-239.28211975097656,23.905414581298828 -231.07171630859375,-227.77305603027344 -191.2184295654297,-252.3306121826172z"/></g><g opacity="0.5" transform="matrix(1,0,0,1,143.02699279785156,153.62600708007812)"><path fill="rgb(255,255,255)" fill-opacity="1" d=" M53.76120376586914,-127.16643524169922 C53.76120376586914,-127.16643524169922 1.184205174446106,-99.14543151855469 1.184205174446106,-99.14543151855469 C1.184205174446106,-99.14543151855469 9.117204666137695,-77.97543334960938 9.117204666137695,-77.97543334960938 C9.117204666137695,-77.97543334960938 66.31399536132812,-115.68572235107422 66.31399536132812,-115.68572235107422 C66.31399536132812,-115.68572235107422 53.76120376586914,-127.16643524169922 53.76120376586914,-127.16643524169922z"/></g><g opacity="0.5" transform="matrix(1,0,0,1,463.489013671875,347.7550048828125)"><path fill="rgb(255,255,255)" fill-opacity="1" d=" M40.427101135253906,-32.98777389526367 C40.427101135253906,-32.98777389526367 -28.691999435424805,5.159999847412109 -28.691999435424805,5.159999847412109 C-28.691999435424805,5.159999847412109 -20.759000778198242,26.329999923706055 -20.759000778198242,26.329999923706055 C-20.759000778198242,26.329999923706055 43.630104064941406,-11.934772491455078 43.630104064941406,-11.934772491455078 C43.630104064941406,-11.934772491455078 40.427101135253906,-32.98777389526367 40.427101135253906,-32.98777389526367z"/></g><g opacity="0.5" transform="matrix(1,0,0,1,472.0320129394531,236.7790069580078)"><path fill="rgb(255,255,255)" fill-opacity="1" d=" M25.48900032043457,-26.329999923706055 C25.48900032043457,-26.329999923706055 -28.691999435424805,5.159999847412109 -28.691999435424805,5.159999847412109 C-28.691999435424805,5.159999847412109 -20.759000778198242,26.329999923706055 -20.759000778198242,26.329999923706055 C-20.759000778198242,26.329999923706055 28.691999435424805,-5.2769999504089355 28.691999435424805,-5.2769999504089355 C28.691999435424805,-5.2769999504089355 25.48900032043457,-26.329999923706055 25.48900032043457,-26.329999923706055z"/></g><g opacity="1" transform="matrix(1,0,0,1,263.5299987792969,302.0889892578125)"><path stroke-linecap="round" stroke-linejoin="round" fill-opacity="0" stroke="rgb(0,0,0)" stroke-opacity="1" stroke-width="15" d=" M-157.2184295654297,-282.3305969238281 C-130.7689208984375,-298.62933349609375 -98.05937194824219,-297.3387756347656 -82.71746826171875,-288.8650817871094 C-67.37555694580078,-280.391357421875 -52.852935791015625,-263.02490234375 -52.852935791015625,-263.02490234375 C-52.852935791015625,-263.02490234375 7.825358867645264,-295.7165832519531 26.858154296875,-214.2802734375 C26.858154296875,-214.2802734375 86.334716796875,-219.9440460205078 93.71585845947266,-158.14227294921875 C93.71585845947266,-158.14227294921875 138.13079833984375,-169.68167114257812 151.40904235839844,-124.84716796875 C151.40904235839844,-124.84716796875 199.75399780273438,-128.13499450683594 229.47799682617188,-94.69200134277344 C259.2019958496094,-61.249000549316406 205.91799926757812,-5.891572952270508 205.91799926757812,-5.891572952270508 C205.91799926757812,-5.891572952270508 244.2030029296875,6.693999767303467 246.1999969482422,24.7189998626709 C248.19700622558594,42.74399948120117 207.78399658203125,134.25999450683594 168.1439971923828,141.0500030517578 C160.4980010986328,142.36000061035156 108.40299987792969,131.28907775878906 10.07699966430664,141.12208557128906 C-25.2189998626709,144.65208435058594 -70.34793090820312,136.23037719726562 -133.9229278564453,151.15338134765625 C-166.10592651367188,158.70838928222656 -190.44692993164062,136.15130615234375 -199.0519256591797,87.36930084228516 C-207.05593872070312,41.9983024597168 -206.4771270751953,-6.041584491729736 -205.28211975097656,-6.0945844650268555 C-205.28211975097656,-6.0945844650268555 -197.07171630859375,-257.7730407714844 -157.2184295654297,-282.3305969238281z"/></g></g><g style="display: block;" transform="matrix(0.901749312877655,0,0,0.8982506990432739,13.93818473815918,28.115182876586914)" opacity="1"><g opacity="1" transform="matrix(1,0,0,1,239.9530029296875,329.1570129394531)"><path fill="url(#__lottie_element_2567)" fill-opacity="1" d=" M-167.6414337158203,-279.39862060546875 C-141.19192504882812,-295.6973571777344 -108.48236846923828,-294.40777587890625 -93.14046478271484,-285.93408203125 C-77.7985610961914,-277.4603576660156 -63.275936126708984,-260.0928955078125 -63.275936126708984,-260.0928955078125 C-63.275936126708984,-260.0928955078125 -2.5976414680480957,-292.78558349609375 16.435155868530273,-211.34927368164062 C16.435155868530273,-211.34927368164062 75.91171264648438,-217.01304626464844 83.29285430908203,-155.21127319335938 C83.29285430908203,-155.21127319335938 127.70780181884766,-166.75067138671875 140.9860382080078,-121.91616821289062 C140.9860382080078,-121.91616821289062 189.33099365234375,-125.2030029296875 219.05499267578125,-91.76000213623047 C248.7790069580078,-58.31700134277344 195.4949951171875,-2.9605729579925537 195.4949951171875,-2.9605729579925537 C195.4949951171875,-2.9605729579925537 233.77999877929688,9.625 235.77699279785156,27.649999618530273 C237.7740020751953,45.67499923706055 197.36099243164062,137.1909942626953 157.7209930419922,143.9810028076172 C150.0749969482422,145.29100036621094 97.9800033569336,134.22007751464844 -0.34599998593330383,144.05308532714844 C-35.641998291015625,147.5830841064453 -80.77093505859375,139.161376953125 -144.34593200683594,154.08438110351562 C-176.5289306640625,161.63938903808594 -200.86993408203125,139.0832977294922 -209.4749298095703,90.30130004882812 C-217.4789276123047,44.930301666259766 -216.90013122558594,-3.1105844974517822 -215.7051239013672,-3.1635844707489014 C-215.7051239013672,-3.1635844707489014 -207.4947052001953,-254.84104919433594 -167.6414337158203,-279.39862060546875z"/></g><g opacity="0.3" transform="matrix(1,0,0,1,433.5889892578125,354.5140075683594)"><path stroke-linecap="round" stroke-linejoin="round" fill-opacity="0" stroke="rgb(128,133,155)" stroke-opacity="1" stroke-width="15" d=" M1.8589999675750732,-20.31757354736328 C1.8589999675750732,-20.31757354736328 38.14400100708008,-7.73199987411499 40.14099884033203,10.293000221252441"/></g><g opacity="0.3" transform="matrix(1,0,0,1,242.11599731445312,213.23399353027344)"><path stroke-linecap="round" stroke-linejoin="round" fill-opacity="0" stroke="rgb(128,133,155)" stroke-opacity="1" stroke-width="15" d=" M-181.45321655273438,-146.5934600830078 C-153.833251953125,-169.20286560058594 -114.51178741455078,-170.359375 -99.16988372802734,-161.88568115234375 C-83.8279800415039,-153.41197204589844 -68.87552642822266,-136.94776916503906 -68.87552642822266,-136.94776916503906 C-68.87552642822266,-136.94776916503906 -7.00449800491333,-162.8779754638672 10.835563659667969,-88.20314025878906 C10.835563659667969,-88.20314025878906 66.76583099365234,-92.09178161621094 77.6922607421875,-32.06515121459961 C77.6922607421875,-32.06515121459961 122.10720825195312,-43.60553741455078 135.38543701171875,1.228963851928711 C135.38543701171875,1.228963851928711 210.61300659179688,8.435999870300293 223.89999389648438,42.76599884033203"/></g><g opacity="1" transform="matrix(1,0,0,1,239.9530029296875,328.73199462890625)"><path stroke-linecap="round" stroke-linejoin="round" fill-opacity="0" stroke="rgb(0,0,0)" stroke-opacity="1" stroke-width="15" d=" M-167.6414337158203,-278.9736022949219 C-141.19192504882812,-295.2723388671875 -108.48236846923828,-293.9817810058594 -93.14046478271484,-285.5080871582031 C-77.7985610961914,-277.03436279296875 -63.275936126708984,-259.66790771484375 -63.275936126708984,-259.66790771484375 C-63.275936126708984,-259.66790771484375 -3.09627628326416,-291.3623352050781 16.435155868530273,-210.9232635498047 C16.435155868530273,-210.9232635498047 75.91171264648438,-216.0884246826172 83.29285430908203,-154.7852783203125 C83.29285430908203,-154.7852783203125 127.70780181884766,-166.32566833496094 140.9860382080078,-121.49116516113281 C140.9860382080078,-121.49116516113281 189.33099365234375,-124.77799987792969 219.05499267578125,-91.33499908447266 C248.7790069580078,-57.89299774169922 195.4949951171875,-2.5345728397369385 195.4949951171875,-2.5345728397369385 C195.4949951171875,-2.5345728397369385 233.77999877929688,10.050000190734863 235.77699279785156,28.075000762939453 C237.7740020751953,46.099998474121094 197.531005859375,138.69900512695312 157.7209930419922,144.40699768066406 C138.52200317382812,147.16000366210938 89.15299987792969,142.5660858154297 -0.34599998593330383,149.4790802001953 C-35.7130012512207,152.21107482910156 -72.30693054199219,144.31338500976562 -144.34593200683594,154.50938415527344 C-177.0779266357422,159.1423797607422 -200.86993408203125,139.50830078125 -209.4749298095703,90.72630310058594 C-217.4789276123047,45.35530471801758 -214.90013122558594,-2.685584545135498 -215.7051239013672,-2.738584518432617 C-215.7051239013672,-2.738584518432617 -207.4947052001953,-254.4160614013672 -167.6414337158203,-278.9736022949219z"/></g></g><g style="display: block;" transform="matrix(0.5869987607002258,0,0,0.5847213268280029,163.00086975097656,144.76986694335938)" opacity="1"><g opacity="0.25" transform="matrix(1,0,0,1,311.2359924316406,409.802001953125)"><path fill="rgb(128,133,155)" fill-opacity="1" d=" M4.956999778747559,-50.428001403808594 C-30.863000869750977,-53.439998626708984 -44.27899932861328,34.50400161743164 -31.466999053955078,45.257999420166016 C-22.5,52.784000396728516 -15.618000030517578,46.6150016784668 -10.22599983215332,38.74300003051758 C-8.40999984741211,36.090999603271484 -5.0980000495910645,33.005001068115234 -1.6469999551773071,32.79399871826172 C4.5920000076293945,32.41299819946289 6.47599983215332,36.09400177001953 8.246000289916992,39.04100036621094 C12.538000106811523,46.1870002746582 16.007999420166016,52.80400085449219 25.437000274658203,49.731998443603516 C29.07900047302246,48.54499816894531 32.38600158691406,44.691001892089844 33.74800109863281,40.17300033569336 C41.0369987487793,15.987000465393066 32.41699981689453,-48.11899948120117 4.956999778747559,-50.428001403808594z M0.8080000281333923,11.854999542236328 C-14.758000373840332,11.093000411987305 -10.293999671936035,-12.21500015258789 2.319999933242798,-11.303999900817871 C12.305999755859375,-10.583000183105469 16.374000549316406,12.616999626159668 0.8080000281333923,11.854999542236328z"/></g><g opacity="0.25" transform="matrix(1,0,0,1,232.56900024414062,405.718994140625)"><path fill="rgb(128,133,155)" fill-opacity="1" d=" M-35.87699890136719,4.9710001945495605 C-40.25299835205078,33.01599884033203 -30.57699966430664,54.553001403808594 -5.170000076293945,55.75699996948242 C20.23699951171875,56.959999084472656 27.74799919128418,45.106998443603516 33.3129997253418,14.723999977111816 C38.36899948120117,-12.883000373840332 37.069000244140625,-35.869998931884766 35.43600082397461,-45.0099983215332 C32.82400131225586,-59.62799835205078 10.652000427246094,-61.77000045776367 6.572000026702881,-36.81100082397461 C6.145999908447266,-34.20399856567383 4.0960001945495605,-32.1879997253418 1.725000023841858,-32.12699890136719 C-7.915999889373779,-31.87700080871582 -30.768999099731445,-27.761999130249023 -35.87699890136719,4.9710001945495605z M-1.3350000381469727,-0.257999986410141 C11.26200008392334,-3.069000005722046 11.98799991607666,20.19300079345703 0.5230000019073486,23 C-14.303000450134277,26.628999710083008 -14.600000381469727,2.7019999027252197 -1.3350000381469727,-0.257999986410141z"/></g><g opacity="0.25" transform="matrix(1,0,0,1,390.9440002441406,409.85198974609375)"><path fill="rgb(128,133,155)" fill-opacity="1" d=" M-15.539999961853027,-49.7869987487793 C-23.167999267578125,-53.95399856567383 -40.382999420166016,-48.99300003051758 -32.40800094604492,-23.14699935913086 C-25.43600082397461,-0.5519999861717224 -20.118999481201172,4.573999881744385 -21.665000915527344,8.631999969482422 C-25.209999084472656,17.93899917602539 -38.03900146484375,39.617000579833984 -23.631999969482422,49.233001708984375 C-15.369999885559082,54.74800109863281 -7.10699987411499,47.93199920654297 4.767000198364258,30.094999313354492 C12.131999969482422,19.0310001373291 21.429000854492188,3.5850000381469727 31.334999084472656,-15.359000205993652 C40.599998474121094,-33.07699966430664 27.510000228881836,-48.95399856567383 15.651000022888184,-43.92499923706055 C8.871000289916992,-41.04999923706055 1.6770000457763672,-25.125999450683594 -0.41200000047683716,-25.079999923706055 C-3.0739998817443848,-25.020999908447266 -7.298999786376953,-45.2859992980957 -15.539999961853027,-49.7869987487793z"/></g><g opacity="1" transform="matrix(1,0,0,1,311.6940002441406,399.81201171875)"><path fill="rgb(0,0,0)" fill-opacity="1" d=" M4.956999778747559,-50.428001403808594 C-30.863000869750977,-53.439998626708984 -44.27899932861328,34.50400161743164 -31.466999053955078,45.257999420166016 C-22.5,52.784000396728516 -15.618000030517578,46.6150016784668 -10.22599983215332,38.74300003051758 C-8.40999984741211,36.090999603271484 -5.0980000495910645,33.005001068115234 -1.6469999551773071,32.79399871826172 C4.5920000076293945,32.41299819946289 6.47599983215332,36.09400177001953 8.246000289916992,39.04100036621094 C12.538000106811523,46.1870002746582 16.007999420166016,52.80400085449219 25.437000274658203,49.731998443603516 C29.07900047302246,48.54499816894531 32.38600158691406,44.691001892089844 33.74800109863281,40.17300033569336 C41.0369987487793,15.987000465393066 32.41699981689453,-48.11899948120117 4.956999778747559,-50.428001403808594z M0.8080000281333923,11.854999542236328 C-14.758000373840332,11.093000411987305 -10.293999671936035,-12.21500015258789 2.319999933242798,-11.303999900817871 C12.305999755859375,-10.583000183105469 16.374000549316406,12.616999626159668 0.8080000281333923,11.854999542236328z"/></g><g opacity="1" transform="matrix(1,0,0,1,232.56900024414062,395.718994140625)"><path fill="rgb(0,0,0)" fill-opacity="1" d=" M-35.87699890136719,4.9710001945495605 C-40.25299835205078,33.01599884033203 -30.57699966430664,54.553001403808594 -5.170000076293945,55.75699996948242 C20.23699951171875,56.959999084472656 27.74799919128418,45.106998443603516 33.3129997253418,14.723999977111816 C38.36899948120117,-12.883000373840332 37.069000244140625,-35.869998931884766 35.43600082397461,-45.0099983215332 C32.82400131225586,-59.62799835205078 10.652000427246094,-61.77000045776367 6.572000026702881,-36.81100082397461 C6.145999908447266,-34.20399856567383 4.0960001945495605,-32.1879997253418 1.725000023841858,-32.12699890136719 C-7.915999889373779,-31.87700080871582 -30.768999099731445,-27.761999130249023 -35.87699890136719,4.9710001945495605z M-1.3350000381469727,-0.257999986410141 C11.26200008392334,-3.069000005722046 11.98799991607666,20.19300079345703 0.5230000019073486,23 C-14.303000450134277,26.628999710083008 -14.600000381469727,2.7019999027252197 -1.3350000381469727,-0.257999986410141z"/></g><g opacity="0.3" transform="matrix(1,0,0,1,232.6929931640625,427.2569885253906)"><path fill="url(#__lottie_element_2571)" fill-opacity="1" d=" M7.921000003814697,-3.86899995803833 C4.302999973297119,-5.811999797821045 -0.6499999761581421,-5.2210001945495605 -6.044000148773193,-3.571000099182129 C-11.894000053405762,-1.781000018119812 -11.295999526977539,5.507999897003174 -1.8200000524520874,5.067999839782715 C7.656000137329102,4.627999782562256 12.866000175476074,-1.2139999866485596 7.921000003814697,-3.86899995803833z"/></g><g opacity="1" transform="matrix(1,0,0,1,390.9440002441406,399.85198974609375)"><path fill="rgb(0,0,0)" fill-opacity="1" d=" M-15.539999961853027,-49.7869987487793 C-23.167999267578125,-53.95399856567383 -40.382999420166016,-48.99300003051758 -32.40800094604492,-23.14699935913086 C-25.43600082397461,-0.5519999861717224 -20.118999481201172,4.573999881744385 -21.665000915527344,8.631999969482422 C-25.209999084472656,17.93899917602539 -38.03900146484375,39.617000579833984 -23.631999969482422,49.233001708984375 C-15.369999885559082,54.74800109863281 -7.10699987411499,47.93199920654297 4.767000198364258,30.094999313354492 C12.131999969482422,19.0310001373291 21.429000854492188,3.5850000381469727 31.334999084472656,-15.359000205993652 C40.599998474121094,-33.07699966430664 27.510000228881836,-48.95399856567383 15.651000022888184,-43.92499923706055 C8.871000289916992,-41.04999923706055 1.6770000457763672,-25.125999450683594 -0.41200000047683716,-25.079999923706055 C-3.0739998817443848,-25.020999908447266 -7.298999786376953,-45.2859992980957 -15.539999961853027,-49.7869987487793z"/></g><g opacity="0.4" transform="matrix(1,0,0,1,314.322998046875,364.9110107421875)"><path fill="url(#__lottie_element_2572)" fill-opacity="1" d=" M12.354000091552734,-0.3269999921321869 C9.79699993133545,-11.305999755859375 -10.482000350952148,-10.906999588012695 -12.39799976348877,0.7129999995231628 C-13.571999549865723,7.833000183105469 -5.14900016784668,8.45300006866455 1.9479999542236328,8.26200008392334 C9.982000350952148,8.045999526977539 13.291000366210938,3.697000026702881 12.354000091552734,-0.3269999921321869z"/></g><g opacity="0.4" transform="matrix(1,0,0,1,254.82400512695312,351.23699951171875)"><path fill="url(#__lottie_element_2573)" fill-opacity="1" d=" M8.442999839782715,-0.6230000257492065 C6.336999893188477,-8.095999717712402 -7.603000164031982,-7.182000160217285 -8.555000305175781,0.8740000128746033 C-9.137999534606934,5.809999942779541 -3.322999954223633,5.9710001945495605 1.5540000200271606,5.616000175476074 C7.074999809265137,5.214000225067139 9.21500015258789,2.115999937057495 8.442999839782715,-0.6230000257492065z"/></g><g opacity="0.4" transform="matrix(1,0,0,1,369.7919921875,360.0899963378906)"><path fill="url(#__lottie_element_2574)" fill-opacity="1" d=" M7.828999996185303,-1.9839999675750732 C4.697000026702881,-8.805000305175781 -8.47700023651123,-5.841000080108643 -8.178000450134277,1.99399995803833 C-7.994999885559082,6.795000076293945 -2.4179999828338623,6.077000141143799 2.186000108718872,5.00600004196167 C7.3979997634887695,3.7939999103546143 8.97700023651123,0.515999972820282 7.828999996185303,-1.9839999675750732z"/></g><g opacity="0.4" transform="matrix(1,0,0,1,413.0690002441406,366.66900634765625)"><path fill="url(#__lottie_element_2575)" fill-opacity="1" d=" M7.453000068664551,3.9839999675750732 C10.038999557495117,-3.062000036239624 -1.3960000276565552,-10.244999885559082 -6.705999851226807,-4.47599983215332 C-9.960000038146973,-0.9409999847412109 -5.498000144958496,2.4809999465942383 -1.4769999980926514,4.966000080108643 C3.075000047683716,7.78000020980835 6.505000114440918,6.565999984741211 7.453000068664551,3.9839999675750732z"/></g><g opacity="0.3" transform="matrix(1,0,0,1,311.90301513671875,419.4049987792969)"><path fill="url(#__lottie_element_2576)" fill-opacity="1" d=" M8.480999946594238,-2.183000087738037 C5.326000213623047,-4.811999797821045 0.35600000619888306,-5.228000164031982 -5.260000228881836,-4.692999839782715 C-11.350000381469727,-4.11299991607666 -12.225000381469727,3.1500000953674316 -2.8540000915527344,4.61899995803833 C6.517000198364258,6.0879998207092285 12.793000221252441,1.409999966621399 8.480999946594238,-2.183000087738037z"/></g><g opacity="0.4" transform="matrix(1,0,0,1,226.91000366210938,378.49200439453125)"><path fill="url(#__lottie_element_2577)" fill-opacity="1" d=" M11.605999946594238,-8.211000442504883 C5.47599983215332,-10.635000228881836 -1.934000015258789,-9.833999633789062 -10.362000465393066,-4.381999969482422 C-18.676000595092773,0.9959999918937683 -16.59600067138672,11.996999740600586 -1.74399995803833,9.001999855041504 C13.107999801635742,6.006999969482422 19.944000244140625,-4.914000034332275 11.605999946594238,-8.211000442504883z"/></g></g><g style="display: block;" transform="matrix(0.6139773726463318,0,0,0.6115952730178833,154.98422241210938,128.89617919921875)" opacity="1"><g opacity="0.25" transform="matrix(1,0,0,1,164.92599487304688,406.6610107421875)"><path fill="rgb(128,133,155)" fill-opacity="1" d=" M-4.757999897003174,-13.532999992370605 C-12.057999610900879,-12 -23.992000579833984,-7.921000003814697 -22.44300079345703,3.2209999561309814 C-21.207000732421875,12.105999946594238 -16.465999603271484,16.875 -0.08299999684095383,14.126999855041504 C7.730999946594238,12.815999984741211 1.4989999532699585,14.315999984741211 9.911999702453613,12.269000053405762 C28.12700080871582,7.836999893188477 24.093000411987305,-10.180000305175781 14.069000244140625,-13.595000267028809 C8.137999534606934,-15.616000175476074 2.484999895095825,-15.053999900817871 -4.757999897003174,-13.532999992370605z"/></g><g opacity="1" transform="matrix(1,0,0,1,164.92599487304688,396.6610107421875)"><path fill="rgb(0,0,0)" fill-opacity="1" d=" M-4.757999897003174,-13.532999992370605 C-12.057999610900879,-12 -23.992000579833984,-7.921000003814697 -22.44300079345703,3.2209999561309814 C-21.207000732421875,12.105999946594238 -16.465999603271484,16.875 -0.08299999684095383,14.126999855041504 C7.730999946594238,12.815999984741211 1.4989999532699585,14.315999984741211 9.911999702453613,12.269000053405762 C28.12700080871582,7.836999893188477 24.093000411987305,-10.180000305175781 14.069000244140625,-13.595000267028809 C8.137999534606934,-15.616000175476074 2.484999895095825,-15.053999900817871 -4.757999897003174,-13.532999992370605z"/></g><g opacity="0.4" transform="matrix(1,0,0,1,164.0070037841797,393.2250061035156)"><path fill="url(#__lottie_element_2581)" fill-opacity="1" d=" M10.45199966430664,-4.7179999351501465 C5.492000102996826,-7.073999881744385 -0.8180000185966492,-7.223999977111816 -8.378999710083008,-4.10699987411499 C-15.838000297546387,-1.0329999923706055 -15.013999938964844,7.131999969482422 -2.247999906539917,6.425000190734863 C10.517999649047852,5.7179999351501465 17.197999954223633,-1.5130000114440918 10.45199966430664,-4.7179999351501465z"/></g></g><g style="display: block;" transform="matrix(2.022631883621216,0.11385111510753632,-0.11429455131292343,2.014784336090088,-7.636490821838379,-524.6041259765625)" opacity="1"><g opacity="0.25" transform="matrix(1,0,0,1,96.5469970703125,416.3529968261719)"><path fill="rgb(128,133,155)" fill-opacity="1" d=" M29.8712100982666,-8.133499145507812 C29.254390716552734,-13.249065399169922 41.985565185546875,-22.210208892822266 33.175079345703125,-46.159481048583984 C24.27452278137207,-70.35533905029297 -21.40067481994629,-72.52915954589844 -40.1195068359375,-51.51696014404297 C-53.653011322021484,-36.325374603271484 -46.69326400756836,48.260520935058594 -28.37580108642578,58.48521423339844 C-13.592731475830078,66.70637512207031 46.72370147705078,62.12314987182617 48.26313018798828,30.290712356567383 C49.77375030517578,-2.7641680240631104 30.385055541992188,-3.876394510269165 29.8712100982666,-8.133499145507812z M-4.108551502227783,-38.33230972290039 C6.223100662231445,-38.16244125366211 10.74971866607666,-20.26260757446289 -5.274703502655029,-18.612754821777344 C-21.29912567138672,-16.962902069091797 -17.158973693847656,-38.54743957519531 -4.108551502227783,-38.33230972290039z M4.797342300415039,32.59349822998047 C-14.762207984924316,34.51505661010742 -13.173253059387207,12.450000762939453 2.7269446849823,11.160736083984375 C15.314993858337402,10.139744758605957 24.356891632080078,30.67194175720215 4.797342300415039,32.59349822998047z"/></g><g opacity="1" transform="matrix(1,0,0,1,96.5469970703125,406.3529968261719)"><path fill="rgb(0,0,0)" fill-opacity="1" d=" M29.8712100982666,-7.934197902679443 C29.254390716552734,-13.049764633178711 43.16064453125,-21.936767578125 34.35015869140625,-45.88603973388672 C25.449602127075195,-70.08189392089844 -20.225391387939453,-72.2557144165039 -38.944427490234375,-51.2435188293457 C-52.47793197631836,-36.05193328857422 -45.397727966308594,46.68845748901367 -28.37580108642578,58.684513092041016 C-11.353874206542969,70.68057250976562 46.346500396728516,64.01660919189453 48.26313018798828,30.490013122558594 C50.152164459228516,-2.5559439659118652 30.385055541992188,-3.677093267440796 29.8712100982666,-7.934197902679443z M-2.933472156524658,-38.52793502807617 C7.39818000793457,-38.35806655883789 10.74971866607666,-19.954622268676758 -5.274703502655029,-18.251636505126953 C-21.29912567138672,-16.54865074157715 -15.983894348144531,-38.743064880371094 -2.933472156524658,-38.52793502807617z M4.68479061126709,33.22331237792969 C-14.87475872039795,35.14487075805664 -13.28600788116455,13.079017639160156 2.6141905784606934,11.789752960205078 C15.202239990234375,10.76876163482666 24.244340896606445,31.301755905151367 4.68479061126709,33.22331237792969z"/></g><g opacity="0.3" transform="matrix(1,0,0,1,92.64800262451172,395.8940124511719)"><path fill="url(#__lottie_element_2585)" fill-opacity="1" d=" M7.764570713043213,-3.6762778759002686 C3.971702814102173,-5.609011650085449 -1.2201511859893799,-5.02204704284668 -6.874865531921387,-3.3801939487457275 C-13.007237434387207,-1.5995019674301147 -15.863608360290527,6.140182971954346 -5.930368423461914,5.702463150024414 C4.002871036529541,5.264742851257324 12.948424339294434,-1.0345510244369507 7.764570713043213,-3.6762778759002686z"/></g><g opacity="0.3" transform="matrix(1,0,0,1,102.47100067138672,448.5580139160156)"><path fill="url(#__lottie_element_2586)" fill-opacity="1" d=" M8.551390647888184,-5.224547386169434 C4.467822074890137,-7.014050483703613 -1.0851044654846191,-6.418792247772217 -7.122185230255127,-4.826366424560547 C-13.66874885559082,-3.099423408508301 -12.914867401123047,3.726595640182495 -2.2828333377838135,3.2334704399108887 C8.349200248718262,2.7403454780578613 14.132428169250488,-2.7786595821380615 8.551390647888184,-5.224547386169434z"/></g><g opacity="0.4" transform="matrix(1,0,0,1,83.20899963378906,352.8919982910156)"><path fill="url(#__lottie_element_2587)" fill-opacity="1" d=" M21.28114891052246,-6.051753520965576 C13.384783744812012,-9.250636100769043 5.6270036697387695,-8.370713233947754 -6.263076305389404,-4.224533557891846 C-17.992429733276367,-0.13481615483760834 -18.735044479370117,9.731761932373047 1.439707636833191,8.857325553894043 C21.614459991455078,7.982889652252197 32.02226638793945,-1.7008490562438965 21.28114891052246,-6.051753520965576z"/></g></g><g style="display: block;" transform="matrix(0.901749312877655,0,0,0.8982506990432739,15.736763000488281,32.59419250488281)" opacity="1"><g opacity="0.25" transform="matrix(1,0,0,1,405.8089904785156,285.3659973144531)"><path fill="rgb(128,133,155)" fill-opacity="1" d=" M-1.9210000038146973,-46.643001556396484 C-8.090999603271484,-52.76499938964844 -26.006999969482422,-52.78300094604492 -25.525999069213867,-25.738000869750977 C-25.106000900268555,-2.0950000286102295 -21.422000885009766,4.304999828338623 -24.034000396728516,7.77400016784668 C-30.025999069213867,15.729999542236328 -48.37300109863281,32.9900016784668 -37.20399856567383,46.22999954223633 C-30.798999786376953,53.823001861572266 -20.968000411987305,49.57099914550781 -4.605999946594238,35.73500061035156 C5.543000221252441,27.152999877929688 18.764999389648438,14.89799976348877 33.54399871826172,-0.5479999780654907 C47.36600112915039,-14.994000434875488 39.202999114990234,-33.882999420166016 26.413999557495117,-32.34700012207031 C19.10300064086914,-31.4689998626709 7.76800012588501,-18.170000076293945 5.748000144958496,-18.70599937438965 C3.174999952316284,-19.388999938964844 4.744999885559082,-40.029998779296875 -1.9210000038146973,-46.643001556396484z"/></g><g opacity="1" transform="matrix(1,0,0,1,405.8089904785156,275.3659973144531)"><path fill="rgb(0,0,0)" fill-opacity="1" d=" M-1.9210000038146973,-46.643001556396484 C-8.090999603271484,-52.76499938964844 -26.006999969482422,-52.78300094604492 -25.525999069213867,-25.738000869750977 C-25.106000900268555,-2.0950000286102295 -21.422000885009766,4.304999828338623 -24.034000396728516,7.77400016784668 C-30.025999069213867,15.729999542236328 -48.37300109863281,32.9900016784668 -37.20399856567383,46.22999954223633 C-30.798999786376953,53.823001861572266 -20.968000411987305,49.57099914550781 -4.605999946594238,35.73500061035156 C5.543000221252441,27.152999877929688 18.764999389648438,14.89799976348877 33.54399871826172,-0.5479999780654907 C47.36600112915039,-14.994000434875488 39.202999114990234,-33.882999420166016 26.413999557495117,-32.34700012207031 C19.10300064086914,-31.4689998626709 7.76800012588501,-18.170000076293945 5.748000144958496,-18.70599937438965 C3.174999952316284,-19.388999938964844 4.744999885559082,-40.029998779296875 -1.9210000038146973,-46.643001556396484z"/></g><g opacity="0.4" transform="matrix(1,0,0,1,395.15899658203125,235.78199768066406)"><path fill="url(#__lottie_element_2591)" fill-opacity="1" d=" M8.16100025177002,-0.6019999980926514 C6.125999927520752,-7.826000213623047 -7.348999977111816,-6.942999839782715 -8.269000053405762,0.843999981880188 C-8.833000183105469,5.614999771118164 -3.2130000591278076,5.770999908447266 1.5019999742507935,5.427999973297119 C6.839000225067139,5.039000034332275 8.906999588012695,2.0460000038146973 8.16100025177002,-0.6019999980926514z"/></g><g opacity="0.4" transform="matrix(1,0,0,1,434.7030029296875,254.76600646972656)"><path fill="url(#__lottie_element_2592)" fill-opacity="1" d=" M7.046000003814697,4.583000183105469 C10.270000457763672,-2.194000005722046 -0.45500001311302185,-10.399999618530273 -6.27400016784668,-5.144999980926514 C-9.84000015258789,-1.9249999523162842 -6.711999893188477,1.8930000066757202 -2.937000036239624,4.73799991607666 C1.3359999656677246,7.959000110626221 5.863999843597412,7.066999912261963 7.046000003814697,4.583000183105469z"/></g></g><g style="display: block;" transform="matrix(0.8968371152877808,0.09362984448671341,-0.09399452805519104,0.8933575749397278,34.61763000488281,-6.325040817260742)" opacity="1"><g opacity="0.25" transform="matrix(1,0,0,1,334.0820007324219,274.5199890136719)"><path fill="rgb(128,133,155)" fill-opacity="1" d=" M36.183998107910156,5.935999870300293 C43.84600067138672,-21.160999298095703 37.04600143432617,-44.83000183105469 12.470999717712402,-51.608001708984375 C-12.104000091552734,-58.38600158691406 -21.575000762939453,-49.34000015258789 -29.770000457763672,-19.826000213623047 C-38.165000915527344,10.40999984741211 -39.566001892089844,29.96500015258789 -39.08599853515625,39.46699905395508 C-38.32500076293945,54.52899932861328 -17.541000366210938,62.268001556396484 -10.37600040435791,39.04600143432617 C-9.493000030517578,36.185001373291016 -6.89300012588501,34.446998596191406 -4.23799991607666,34.92599868774414 C5.539000034332275,36.68899917602539 27.445999145507812,36.8390007019043 36.183998107910156,5.935999870300293z M1.940999984741211,3.5889999866485596 C-10.656000137329102,3.638000011444092 -8.539999961853027,-19.792999267578125 2.9560000896453857,-20.086000442504883 C17.820999145507812,-20.464000701904297 15.206999778747559,3.5380001068115234 1.940999984741211,3.5889999866485596z"/></g><g opacity="1" transform="matrix(1,0,0,1,334.0820007324219,264.5199890136719)"><path fill="rgb(0,0,0)" fill-opacity="1" d=" M36.183998107910156,5.935999870300293 C43.84600067138672,-21.160999298095703 37.04600143432617,-44.83000183105469 12.470999717712402,-51.608001708984375 C-12.104000091552734,-58.38600158691406 -21.575000762939453,-49.34000015258789 -29.770000457763672,-19.826000213623047 C-38.165000915527344,10.40999984741211 -39.566001892089844,29.96500015258789 -39.08599853515625,39.46699905395508 C-38.32500076293945,54.52899932861328 -17.541000366210938,62.268001556396484 -10.37600040435791,39.04600143432617 C-9.493000030517578,36.185001373291016 -6.89300012588501,34.446998596191406 -4.23799991607666,34.92599868774414 C5.539000034332275,36.68899917602539 27.445999145507812,36.8390007019043 36.183998107910156,5.935999870300293z M1.940999984741211,3.5889999866485596 C-10.656000137329102,3.638000011444092 -8.539999961853027,-19.792999267578125 2.9560000896453857,-20.086000442504883 C17.820999145507812,-20.464000701904297 15.206999778747559,3.5380001068115234 1.940999984741211,3.5889999866485596z"/></g><g opacity="0.3" transform="matrix(1,0,0,1,334.1520080566406,275.3280029296875)"><path fill="url(#__lottie_element_2596)" fill-opacity="1" d=" M8.586999893188477,-1.6239999532699585 C5.598999977111816,-4.440999984741211 0.6639999747276306,-5.159999847412109 -4.973999977111816,-4.968999862670898 C-11.088000297546387,-4.76200008392334 -12.406999588012695,2.431999921798706 -3.1429998874664307,4.4720001220703125 C6.120999813079834,6.51200008392334 12.670999526977539,2.2260000705718994 8.586999893188477,-1.6239999532699585z"/></g><g opacity="0.4" transform="matrix(1,0,0,1,342.0660095214844,225.81500244140625)"><path fill="url(#__lottie_element_2597)" fill-opacity="1" d=" M14.711000442504883,-0.02199999988079071 C10.588000297546387,-5.567999839782715 3.5820000171661377,-9.138999938964844 -6.85099983215332,-9.385000228881836 C-17.14299964904785,-9.626999855041504 -21.26300048828125,0.8069999814033508 -6.465000152587891,6.795000076293945 C8.333000183105469,12.782999992370605 20.319000244140625,7.521999835968018 14.711000442504883,-0.02199999988079071z"/></g></g><g style="display: block;" transform="matrix(0.8664154410362244,0.2795809805393219,-0.2806699275970459,0.8630539178848267,100.55636596679688,-88.36604309082031)" opacity="1"><g opacity="0.25" transform="matrix(1,0,0,1,261.09100341796875,271.1310119628906)"><path fill="rgb(128,133,155)" fill-opacity="1" d=" M34.77899932861328,-16.618000030517578 C31.43000030517578,-44.80400085449219 16.30500030517578,-62.933998107910156 -8.486000061035156,-57.24100112915039 C-33.277000427246094,-51.54800033569336 -37.3129997253418,-38.108001708984375 -34.47800064086914,-7.349999904632568 C-31.902000427246094,20.597999572753906 -24.451000213623047,42.38199996948242 -20.413000106811523,50.74300003051758 C-13.954999923706055,64.11399841308594 7.9720001220703125,60.198001861572266 5.170000076293945,35.06399917602539 C4.876999855041504,32.4379997253418 6.309000015258789,29.944000244140625 8.574999809265137,29.246000289916992 C17.79199981689453,26.4060001373291 38.6879997253418,16.280000686645508 34.77899932861328,-16.618000030517578z M2.927000045776367,-2.2669999599456787 C-8.444999694824219,3.8369998931884766 -15.418999671936035,-18.368000030517578 -5.135000228881836,-24.163000106811523 C8.163000106811523,-31.6560001373291 14.902999877929688,-8.694999694824219 2.927000045776367,-2.2669999599456787z"/></g><g opacity="1" transform="matrix(1,0,0,1,261.09100341796875,261.1310119628906)"><path fill="rgb(0,0,0)" fill-opacity="1" d=" M34.77899932861328,-16.618000030517578 C31.43000030517578,-44.80400085449219 16.30500030517578,-62.933998107910156 -8.486000061035156,-57.24100112915039 C-33.277000427246094,-51.54800033569336 -37.3129997253418,-38.108001708984375 -34.47800064086914,-7.349999904632568 C-31.902000427246094,20.597999572753906 -24.451000213623047,42.38199996948242 -20.413000106811523,50.74300003051758 C-13.954999923706055,64.11399841308594 7.9720001220703125,60.198001861572266 5.170000076293945,35.06399917602539 C4.876999855041504,32.4379997253418 6.309000015258789,29.944000244140625 8.574999809265137,29.246000289916992 C17.79199981689453,26.4060001373291 38.6879997253418,16.280000686645508 34.77899932861328,-16.618000030517578z M2.927000045776367,-2.2669999599456787 C-8.444999694824219,3.8369998931884766 -15.418999671936035,-18.368000030517578 -5.135000228881836,-24.163000106811523 C8.163000106811523,-31.6560001373291 14.902999877929688,-8.694999694824219 2.927000045776367,-2.2669999599456787z"/></g><g opacity="0.3" transform="matrix(1,0,0,1,262.48199462890625,268.11199951171875)"><path fill="url(#__lottie_element_2601)" fill-opacity="1" d=" M7.876999855041504,-3.9649999141693115 C4.236000061035156,-5.863999843597412 -0.7089999914169312,-5.215000152587891 -6.083000183105469,-3.499000072479248 C-11.90999984741211,-1.6380000114440918 -11.222999572753906,5.644000053405762 -1.753999948501587,5.089000225067139 C7.715000152587891,4.533999919891357 12.854000091552734,-1.3700000047683716 7.876999855041504,-3.9649999141693115z"/></g><g opacity="0.4" transform="matrix(1,0,0,1,253.86700439453125,218.1479949951172)"><path fill="url(#__lottie_element_2602)" fill-opacity="1" d=" M12.253000259399414,-8.211000442504883 C5.781000137329102,-10.635000228881836 -2.0420000553131104,-9.833999633789062 -10.9399995803833,-4.381999969482422 C-19.718000411987305,0.9959999918937683 -17.520999908447266,11.996999740600586 -1.840999960899353,9.001999855041504 C13.83899974822998,6.006999969482422 21.055999755859375,-4.914000034332275 12.253000259399414,-8.211000442504883z"/></g></g><g style="display: block;" transform="matrix(0.7061194181442261,0.18791547417640686,-0.18864738941192627,0.7033798098564148,113.85993194580078,-86.7783203125)" opacity="1"><g opacity="0.25" transform="matrix(1,0,0,1,185.88499450683594,270.40399169921875)"><path fill="rgb(128,133,155)" fill-opacity="1" d=" M1.6109999418258667,-50.14500045776367 C-34.310001373291016,-51.513999938964844 -43.683998107910156,36.952999114990234 -30.39299964904785,47.10900115966797 C-21.090999603271484,54.21699905395508 -14.496999740600586,47.73899841308594 -9.470999717712402,39.62799835205078 C-7.7779998779296875,36.895999908447266 -4.61299991607666,33.6609992980957 -1.1749999523162842,33.29199981689453 C5.039999961853027,32.625 7.091000080108643,36.21699905395508 8.994000434875488,39.08000183105469 C13.609000205993652,46.02199935913086 17.378000259399414,52.472999572753906 26.656999588012695,48.97200012207031 C30.240999221801758,47.619998931884766 33.36899948120117,43.61800003051758 34.52199935913086,39.04199981689453 C40.69599914550781,14.54800033569336 29.148000717163086,-49.09600067138672 1.6109999418258667,-50.14500045776367z M0.3190000057220459,12.262999534606934 C-15.265999794006348,12.21399974822998 -11.873000144958496,-11.27400016784668 0.7689999938011169,-10.942000389099121 C10.777999877929688,-10.678999900817871 15.904000282287598,12.312000274658203 0.3190000057220459,12.262999534606934z"/></g><g opacity="1" transform="matrix(1,0,0,1,185.88499450683594,260.40399169921875)"><path fill="rgb(0,0,0)" fill-opacity="1" d=" M1.6109999418258667,-50.14500045776367 C-34.310001373291016,-51.513999938964844 -43.683998107910156,36.952999114990234 -30.39299964904785,47.10900115966797 C-21.090999603271484,54.21699905395508 -14.496999740600586,47.73899841308594 -9.470999717712402,39.62799835205078 C-7.7779998779296875,36.895999908447266 -4.61299991607666,33.6609992980957 -1.1749999523162842,33.29199981689453 C5.039999961853027,32.625 7.091000080108643,36.21699905395508 8.994000434875488,39.08000183105469 C13.609000205993652,46.02199935913086 17.378000259399414,52.472999572753906 26.656999588012695,48.97200012207031 C30.240999221801758,47.619998931884766 33.36899948120117,43.61800003051758 34.52199935913086,39.04199981689453 C40.69599914550781,14.54800033569336 29.148000717163086,-49.09600067138672 1.6109999418258667,-50.14500045776367z M0.3190000057220459,12.262999534606934 C-15.265999794006348,12.21399974822998 -11.873000144958496,-11.27400016784668 0.7689999938011169,-10.942000389099121 C10.777999877929688,-10.678999900817871 15.904000282287598,12.312000274658203 0.3190000057220459,12.262999534606934z"/></g><g opacity="0.4" transform="matrix(1,0,0,1,185.5500030517578,223.44200134277344)"><path fill="url(#__lottie_element_2606)" fill-opacity="1" d=" M12.258000373840332,-0.9039999842643738 C9.201000213623047,-11.753999710083008 -11.038000106811523,-10.428000450134277 -12.420000076293945,1.2680000066757202 C-13.267000198364258,8.434000015258789 -4.824999809265137,8.668999671936035 2.25600004196167,8.152999877929688 C10.272000312805176,7.568999767303467 13.378000259399414,3.072999954223633 12.258000373840332,-0.9039999842643738z"/></g><g opacity="0.3" transform="matrix(1,0,0,1,185.66799926757812,280.60699462890625)"><path fill="url(#__lottie_element_2607)" fill-opacity="1" d=" M8.381999969482422,-2.5799999237060547 C5.110000133514404,-5.061999797821045 0.12600000202655792,-5.25 -5.459000110626221,-4.458000183105469 C-11.515999794006348,-3.5999999046325684 -12.059000015258789,3.694999933242798 -2.630000114440918,4.734000205993652 C6.798999786376953,5.7729997634887695 12.854000091552734,0.8119999766349792 8.381999969482422,-2.5799999237060547z"/></g></g><g style="display: block;" transform="matrix(0.5489422082901001,0.04770475625991821,-0.0478905625641346,0.5468124151229858,76.32197570800781,-27.729827880859375)" opacity="1"><g opacity="0.25" transform="matrix(1,0,0,1,90.38700103759766,266.1969909667969)"><path fill="rgb(128,133,155)" fill-opacity="1" d=" M-23.5049991607666,-50.430999755859375 C-30.025999069213867,-63.73699951171875 -53.433998107910156,-58.0890007019043 -54.70199966430664,-41.97100067138672 C-56.845001220703125,-14.718000411987305 -39.3129997253418,62.540000915527344 -28.100000381469727,71.0719985961914 C-18.770000457763672,78.1719970703125 -2.3889999389648438,71.88899993896484 -1.1519999504089355,62.5 C0.041999999433755875,53.444000244140625 -1.902999997138977,39.56700134277344 -3.4820001125335693,30.638999938964844 C-4.296000003814697,26.035999298095703 -1.6349999904632568,21.55299949645996 2.453000068664551,20.639999389648438 C4.326000213623047,20.222000122070312 5.988999843597412,19.78700065612793 7.406000137329102,19.381999969482422 C10.413000106811523,18.52199935913086 13.442000389099121,20.645999908447266 14.093999862670898,24.062000274658203 C16.163000106811523,34.90999984741211 20.812999725341797,53.88399887084961 28.018999099731445,59.492000579833984 C33.37200164794922,63.65800094604492 50.82600021362305,60.72100067138672 53.4739990234375,49.452999114990234 C56.000999450683594,38.70100021362305 55.60900115966797,22.503999710083008 48.27399826049805,-16.965999603271484 C41.7400016784668,-52.12799835205078 35.33599853515625,-68.5739974975586 28.409000396728516,-72.06400299072266 C18.66699981689453,-76.97200012207031 7.445000171661377,-72.48899841308594 3,-65.2300033569336 C-0.7850000262260437,-59.04800033569336 -0.19900000095367432,-53.97200012207031 2.2880001068115234,-34.145999908447266 C2.686000108718872,-30.97599983215332 0.8619999885559082,-27.98900032043457 -1.909000039100647,-27.273000717163086 C-3.9200000762939453,-26.753000259399414 -6.285999774932861,-26.117000579833984 -8.473999977111816,-25.465999603271484 C-11.220000267028809,-24.649999618530273 -14.04800033569336,-26.354000091552734 -15,-29.368000030517578 C-16.510000228881836,-34.1510009765625 -19.20400047302246,-41.65599822998047 -23.5049991607666,-50.430999755859375z"/></g><g opacity="1" transform="matrix(1,0,0,1,90.38700103759766,256.1969909667969)"><path fill="rgb(0,0,0)" fill-opacity="1" d=" M-23.5049991607666,-50.430999755859375 C-30.025999069213867,-63.73699951171875 -53.433998107910156,-58.0890007019043 -54.70199966430664,-41.97100067138672 C-56.845001220703125,-14.718000411987305 -39.3129997253418,62.540000915527344 -28.100000381469727,71.0719985961914 C-18.770000457763672,78.1719970703125 -2.3889999389648438,71.88899993896484 -1.1519999504089355,62.5 C0.041999999433755875,53.444000244140625 -1.902999997138977,39.56700134277344 -3.4820001125335693,30.638999938964844 C-4.296000003814697,26.035999298095703 -1.6349999904632568,21.55299949645996 2.453000068664551,20.639999389648438 C4.326000213623047,20.222000122070312 5.988999843597412,19.78700065612793 7.406000137329102,19.381999969482422 C10.413000106811523,18.52199935913086 13.442000389099121,20.645999908447266 14.093999862670898,24.062000274658203 C16.163000106811523,34.90999984741211 20.812999725341797,53.88399887084961 28.018999099731445,59.492000579833984 C33.37200164794922,63.65800094604492 50.82600021362305,60.72100067138672 53.4739990234375,49.452999114990234 C56.000999450683594,38.70100021362305 55.60900115966797,22.503999710083008 48.27399826049805,-16.965999603271484 C41.7400016784668,-52.12799835205078 35.33599853515625,-68.5739974975586 28.409000396728516,-72.06400299072266 C18.66699981689453,-76.97200012207031 7.445000171661377,-72.48899841308594 3,-65.2300033569336 C-0.7850000262260437,-59.04800033569336 -0.19900000095367432,-53.97200012207031 2.2880001068115234,-34.145999908447266 C2.686000108718872,-30.97599983215332 0.8619999885559082,-27.98900032043457 -1.909000039100647,-27.273000717163086 C-3.9200000762939453,-26.753000259399414 -6.285999774932861,-26.117000579833984 -8.473999977111816,-25.465999603271484 C-11.220000267028809,-24.649999618530273 -14.04800033569336,-26.354000091552734 -15,-29.368000030517578 C-16.510000228881836,-34.1510009765625 -19.20400047302246,-41.65599822998047 -23.5049991607666,-50.430999755859375z"/></g><g opacity="0.4" transform="matrix(1,0,0,1,109.59600067138672,198.66299438476562)"><path fill="url(#__lottie_element_2611)" fill-opacity="1" d=" M12.258000373840332,-1.1169999837875366 C9.201000213623047,-14.529999732971191 -11.038000106811523,-12.890000343322754 -12.420000076293945,1.5679999589920044 C-13.267000198364258,10.427000045776367 -4.824999809265137,10.717000007629395 2.25600004196167,10.079000473022461 C10.272000312805176,9.357000350952148 13.378000259399414,3.7990000247955322 12.258000373840332,-1.1169999837875366z"/></g><g opacity="0.4" transform="matrix(1,0,0,1,52.91600036621094,213.56500244140625)"><path fill="url(#__lottie_element_2612)" fill-opacity="1" d=" M12.184000015258789,-1.0299999713897705 C6.364999771118164,-15.786999702453613 -10.694999694824219,-10.333999633789062 -12.493000030517578,2.6559998989105225 C-13.871000289916992,12.607999801635742 -6.349999904632568,9.770999908447266 0.6460000276565552,8.501999855041504 C9.348999977111816,6.923999786376953 14.260000228881836,4.235000133514404 12.184000015258789,-1.0299999713897705z"/></g><g opacity="0.3" transform="matrix(1,0,0,1,88.02400207519531,239.3820037841797)"><path fill="url(#__lottie_element_2613)" fill-opacity="1" d=" M10.081999778747559,-6.814000129699707 C4.785999774932861,-8.75 -1.8309999704360962,-6.984000205993652 -8.842000007629395,-3.690000057220459 C-16.44499969482422,-0.11800000071525574 -14.211999893188477,9.675000190734863 -1.4179999828338623,7.230999946594238 C11.37600040435791,4.7870001792907715 17.320999145507812,-4.168000221252441 10.081999778747559,-6.814000129699707z"/></g></g><g style="display: block;" transform="matrix(0.8634028434753418,0.5063846111297607,-0.8548835515975952,1.4463167190551758,270.4593505859375,119.40666961669922)" opacity="0.5"><g opacity="1" transform="matrix(1,0,0,0.20833000540733337,0,0)"><path fill="url(#__lottie_element_2620)" fill-opacity="1" d=" M88.16300201416016,0 C88.16300201416016,-46.667999267578125 48.691001892089844,-84.5 0,-84.5 C-48.691001892089844,-84.5 -88.16300201416016,-46.667999267578125 -88.16300201416016,0 C-88.16300201416016,46.667999267578125 -48.691001892089844,84.5 0,84.5 C48.691001892089844,84.5 88.16300201416016,46.667999267578125 88.16300201416016,0z"/></g></g><g style="display: block;" transform="matrix(1.0019437074661255,0,0,0.9980563521385193,35.503562927246094,7.125328063964844)" opacity="1"><g opacity="1" transform="matrix(1,0,0,1,233.4029998779297,106.06199645996094)"><path stroke-linecap="round" stroke-linejoin="round" fill-opacity="0" stroke="rgb(0,0,0)" stroke-opacity="1" stroke-width="10" d=" M0,5.4710001945495605 C0,5.4710001945495605 0,-18.97100067138672 0,-18.97100067138672"/></g><g opacity="1" transform="matrix(0.7545052170753479,-0.2752544581890106,0.2752544581890106,0.7545052170753479,36.91046142578125,82.82003021240234)"><g opacity="1" transform="matrix(1,0,0,1,234.1929931640625,52.770999908447266)"><path fill="rgb(255,255,255)" fill-opacity="1" d=" M2.030912399291992,37.455928802490234 C-24.455232620239258,39.97237014770508 -38.959110260009766,15.113548278808594 -23.654109954833984,-5.114451885223389 C-6.353110313415527,-27.9814510345459 -16.231714248657227,-32.15715408325195 -9.045713424682617,-31.458152770996094 C5.7262864112854,-30.02115249633789 57.19118118286133,32.21487045288086 2.030912399291992,37.455928802490234z"/></g><g opacity="0.6" transform="matrix(1,0,0,1,234.1929931640625,70.00800323486328)"><path fill="rgb(154,154,154)" fill-opacity="1" d=" M2.3380589485168457,13.358726501464844 C-9.598670959472656,14.461749076843262 -13.020907402038574,2.0882437229156494 -6.426436424255371,-6.614166736602783 C1.0279229879379272,-16.451581954956055 -4.697000026702881,-17.51799964904785 -1.4579999446868896,-17.225000381469727 C5.199999809265137,-16.62299919128418 27.198097229003906,11.060832023620605 2.3380589485168457,13.358726501464844z"/></g><g opacity="1" transform="matrix(1,0,0,1,234.1929931640625,52.770999908447266)"><path stroke-linecap="round" stroke-linejoin="round" fill-opacity="0" stroke="rgb(0,0,0)" stroke-opacity="1" stroke-width="15" d=" M2.030912399291992,37.455928802490234 C-8.340346336364746,38.44108581542969 -15.817660331726074,34.50502014160156 -20.200178146362305,28.10603141784668 C-27.0096378326416,18.163570404052734 -32.96611022949219,7.1925482749938965 -23.654109954833984,-5.114451885223389 C-6.353110313415527,-27.9814510345459 -16.231714248657227,-32.15715408325195 -9.045713424682617,-31.458152770996094 C2.495286226272583,-30.33515167236328 38.7131462097168,2.5983328819274902 25.141620635986328,25.398086547851562 C21.341463088989258,31.782052993774414 14.09749698638916,36.309635162353516 2.030912399291992,37.455928802490234z"/></g></g></g></g></svg>